<svg width="22" height="34" viewBox="0 0 22 34" fill="none" xmlns="http://www.w3.org/2000/svg">
<path fill-rule="evenodd" clip-rule="evenodd" d="M10.9999 14.4602C13.3077 14.4602 15.1785 12.5894 15.1785 10.2816C15.1785 7.97384 13.3077 6.10303 10.9999 6.10303C8.6921 6.10303 6.82129 7.97384 6.82129 10.2816C6.82129 12.5894 8.6921 14.4602 10.9999 14.4602ZM10.9999 12.603C12.282 12.603 13.3213 11.5637 13.3213 10.2816C13.3213 8.99951 12.282 7.96017 10.9999 7.96017C9.71777 7.96017 8.67843 8.99951 8.67843 10.2816C8.67843 11.5637 9.71777 12.603 10.9999 12.603Z" fill="black"/>
<path d="M10.9999 12.603C12.282 12.603 13.3213 11.5637 13.3213 10.2816C13.3213 8.99951 12.282 7.96017 10.9999 7.96017C9.71777 7.96017 8.67843 8.99951 8.67843 10.2816C8.67843 11.5637 9.71777 12.603 10.9999 12.603Z" fill="black"/>
<path fill-rule="evenodd" clip-rule="evenodd" d="M19.357 21.4971C20.3827 21.4971 21.2142 20.6656 21.2142 19.64V4.78282C21.2142 3.75715 20.3827 2.92568 19.357 2.92568H13.7809C13.5247 2.92568 13.2798 2.81981 13.1043 2.63314L11.7614 1.20465C11.4009 0.821225 10.7942 0.813692 10.4243 1.18805L8.98016 2.64974C8.8057 2.8263 8.56782 2.92568 8.31961 2.92568H2.64279C1.61712 2.92568 0.785645 3.75715 0.785645 4.78282V19.64C0.785645 20.6656 1.61712 21.4971 2.64279 21.4971H19.357ZM19.357 19.64V4.78282H13.7809C13.0122 4.78282 12.2777 4.46522 11.7512 3.9052L11.0682 3.17868L10.3012 3.955C9.77789 4.4847 9.06425 4.78282 8.31961 4.78282H2.64279V19.64H4.24447C4.36543 17.1836 6.39529 15.2292 8.88163 15.2292H13.4374C15.9237 15.2292 17.9536 17.1836 18.0745 19.64H19.357ZM16.2136 19.64C16.0956 18.2101 14.8977 17.0864 13.4374 17.0864H8.88163C7.42129 17.0864 6.22341 18.2101 6.10545 19.64H16.2136Z" fill="black"/>
<path d="M16.2136 19.64C16.0956 18.2101 14.8977 17.0864 13.4374 17.0864H8.88163C7.42129 17.0864 6.22341 18.2101 6.10545 19.64H16.2136Z" fill="black"/>
<path d="M4.94727 28.1816H6.46431L8.06659 32.0907H8.13477L9.73704 28.1816H11.2541V33.9998H10.0609V30.2129H10.0126L8.50693 33.9714H7.69443L6.18875 30.1987H6.14045V33.9998H4.94727V28.1816Z" fill="black"/>
<path d="M11.9263 28.1816H13.3041L14.6308 30.6873H14.6876L16.0144 28.1816H17.3922L15.27 31.943V33.9998H14.0484V31.943L11.9263 28.1816Z" fill="black"/>
</svg>
