<svg width="12" height="12" viewBox="0 0 12 12" fill="none" xmlns="http://www.w3.org/2000/svg">
<path fill-rule="evenodd" clip-rule="evenodd" d="M5.625 11.25C8.7316 11.25 11.25 8.7316 11.25 5.625C11.25 2.5184 8.7316 0 5.625 0C2.5184 0 0 2.5184 0 5.625C0 8.7316 2.5184 11.25 5.625 11.25ZM6.625 2.1875C6.625 1.63522 6.17728 1.1875 5.625 1.1875C5.07272 1.1875 4.625 1.63522 4.625 2.1875V5.375C4.625 6.06536 5.18464 6.625 5.875 6.625H7.8125C8.36478 6.625 8.8125 6.17728 8.8125 5.625C8.8125 5.07272 8.36478 4.625 7.8125 4.625H6.625V2.1875Z" fill="white"/>
</svg>
