<svg width="25" height="33" viewBox="0 0 25 33" fill="none" xmlns="http://www.w3.org/2000/svg">
<path fill-rule="evenodd" clip-rule="evenodd" d="M11.2181 0.942246C11.9795 0.133184 13.2654 0.133183 14.0268 0.942246L22.6595 10.1144C22.9962 10.4722 23.1837 10.9449 23.1837 11.4362V20.1074C23.1837 21.1725 22.3202 22.0359 21.2551 22.0359H16.449C15.3839 22.0359 14.5204 21.1725 14.5204 20.1074V15.354L14.5203 15.3513C14.52 15.3438 14.5193 15.328 14.5176 15.3051C14.5141 15.2591 14.5065 15.1865 14.4906 15.0967C14.4579 14.9127 14.3942 14.6807 14.2761 14.4593C14.1606 14.2428 13.9991 14.0464 13.7661 13.9008C13.5362 13.7571 13.1815 13.6281 12.6224 13.6281C11.2472 13.6281 10.7892 14.1444 10.5999 14.4796C10.4843 14.6843 10.4287 14.898 10.4039 15.0676C10.3918 15.1504 10.3878 15.2168 10.3867 15.2578C10.3862 15.2775 10.3863 15.2907 10.3865 15.2964L10.3877 15.3169V20.1074C10.3877 21.1725 9.5243 22.0359 8.45918 22.0359H3.82142C2.7563 22.0359 1.89285 21.1725 1.89285 20.1074V11.6151C1.89285 11.1238 2.08033 10.6511 2.41704 10.2933L11.2181 0.942246ZM15.4847 15.3472H16.449V20.1074H21.2551V11.4362L12.6224 2.26402L3.82142 11.6151L3.82142 20.1074L8.45918 20.1074V15.3678C8.45886 15.3588 8.45856 15.3486 8.45832 15.3372C8.45761 15.3033 8.45744 15.259 8.45887 15.2059C8.46171 15.1002 8.47096 14.9569 8.49566 14.7882C8.5445 14.4546 8.6573 13.9975 8.92054 13.5313C9.48889 12.5249 10.6303 11.6995 12.6224 11.6995C13.4945 11.6995 14.2132 11.9059 14.7882 12.2654C15.3602 12.6229 15.7354 13.0973 15.9777 13.5517C16.2174 14.0011 16.3326 14.4399 16.3894 14.7591C16.4181 14.9208 16.4329 15.0579 16.4406 15.1586C16.4444 15.2091 16.4465 15.251 16.4477 15.2828C16.4482 15.2987 16.4486 15.3121 16.4487 15.3229L16.4489 15.3371L16.449 15.3426L16.449 15.345L16.449 15.3461C16.449 15.3461 16.449 15.3472 15.4847 15.3472Z" fill="#1F1D1D"/>
<path d="M0.78302 31.9999V26.1817H2.01313V28.5823H4.51029V26.1817H5.73757V31.9999H4.51029V29.5965H2.01313V31.9999H0.78302Z" fill="#1F1D1D"/>
<path d="M12.0984 29.0908C12.0984 29.7253 11.9781 30.2651 11.7376 30.7101C11.4989 31.1552 11.1732 31.4952 10.7603 31.73C10.3493 31.963 9.88719 32.0795 9.37393 32.0795C8.85688 32.0795 8.39287 31.962 7.98188 31.7272C7.5709 31.4923 7.24609 31.1524 7.00745 30.7073C6.76882 30.2622 6.6495 29.7234 6.6495 29.0908C6.6495 28.4564 6.76882 27.9166 7.00745 27.4715C7.24609 27.0264 7.5709 26.6874 7.98188 26.4545C8.39287 26.2196 8.85688 26.1022 9.37393 26.1022C9.88719 26.1022 10.3493 26.2196 10.7603 26.4545C11.1732 26.6874 11.4989 27.0264 11.7376 27.4715C11.9781 27.9166 12.0984 28.4564 12.0984 29.0908ZM10.8512 29.0908C10.8512 28.6798 10.7896 28.3332 10.6665 28.051C10.5453 27.7688 10.3739 27.5548 10.1523 27.409C9.93075 27.2632 9.67128 27.1903 9.37393 27.1903C9.07658 27.1903 8.81711 27.2632 8.59552 27.409C8.37393 27.5548 8.20158 27.7688 8.07847 28.051C7.95726 28.3332 7.89666 28.6798 7.89666 29.0908C7.89666 29.5018 7.95726 29.8484 8.07847 30.1306C8.20158 30.4128 8.37393 30.6268 8.59552 30.7726C8.81711 30.9185 9.07658 30.9914 9.37393 30.9914C9.67128 30.9914 9.93075 30.9185 10.1523 30.7726C10.3739 30.6268 10.5453 30.4128 10.6665 30.1306C10.7896 29.8484 10.8512 29.5018 10.8512 29.0908Z" fill="#1F1D1D"/>
<path d="M13.0096 26.1817H14.5266L16.1289 30.0908H16.1971L17.7994 26.1817H19.3164V31.9999H18.1232V28.213H18.0749L16.5692 31.9715H15.7567L14.2511 28.1988H14.2028V31.9999H13.0096V26.1817Z" fill="#1F1D1D"/>
<path d="M20.3299 31.9999V26.1817H24.2503V27.1959H21.56V28.5823H24.0486V29.5965H21.56V30.9857H24.2617V31.9999H20.3299Z" fill="#1F1D1D"/>
</svg>
