<svg width="25" height="33" viewBox="0 0 25 33" fill="none" xmlns="http://www.w3.org/2000/svg">
<path fill-rule="evenodd" clip-rule="evenodd" d="M11.2183 0.942246C11.9797 0.133184 13.2656 0.133183 14.027 0.942246L22.6597 10.1144C22.9964 10.4722 23.1839 10.9449 23.1839 11.4362V20.1074C23.1839 21.1725 22.3204 22.0359 21.2553 22.0359H16.4492C15.3841 22.0359 14.5206 21.1725 14.5206 20.1074V15.354L14.5205 15.3513C14.5202 15.3438 14.5195 15.328 14.5178 15.3051C14.5143 15.2591 14.5067 15.1865 14.4908 15.0967C14.4581 14.9127 14.3944 14.6807 14.2763 14.4593C14.1608 14.2428 13.9993 14.0464 13.7663 13.9008C13.5364 13.7571 13.1817 13.6281 12.6226 13.6281C11.2474 13.6281 10.7894 14.1444 10.6001 14.4796C10.4845 14.6843 10.4289 14.898 10.4041 15.0676C10.392 15.1504 10.388 15.2168 10.3869 15.2578C10.3864 15.2775 10.3865 15.2907 10.3867 15.2964L10.3879 15.3169V20.1074C10.3879 21.1725 9.52452 22.0359 8.4594 22.0359H3.82164C2.75652 22.0359 1.89307 21.1725 1.89307 20.1074V11.6151C1.89307 11.1238 2.08055 10.6511 2.41726 10.2933L11.2183 0.942246ZM15.4849 15.3472H16.4492V20.1074H21.2553V11.4362L12.6226 2.26402L3.82164 11.6151V20.1074H8.4594V15.3678C8.45908 15.3588 8.45878 15.3486 8.45854 15.3372C8.45783 15.3033 8.45766 15.259 8.45909 15.2059C8.46193 15.1002 8.47118 14.9569 8.49588 14.7882C8.54472 14.4546 8.65752 13.9975 8.92076 13.5313C9.48911 12.5249 10.6305 11.6995 12.6226 11.6995C13.4947 11.6995 14.2134 11.9059 14.7884 12.2654C15.3604 12.6229 15.7356 13.0973 15.9779 13.5517C16.2176 14.0011 16.3328 14.4399 16.3896 14.7591C16.4183 14.9208 16.4331 15.0579 16.4408 15.1586C16.4446 15.2091 16.4467 15.251 16.4479 15.2828C16.4484 15.2987 16.4488 15.3121 16.4489 15.3229L16.4491 15.3371L16.4492 15.3426V15.345V15.3461C16.4492 15.3461 16.4492 15.3472 15.4849 15.3472Z" fill="#1F1D1D"/>
<path d="M0.783203 31.9998V26.1816H2.01331V28.5822H4.51047V26.1816H5.73775V31.9998H4.51047V29.5964H2.01331V31.9998H0.783203Z" fill="#7C7C7C"/>
<path d="M12.0983 29.0907C12.0983 29.7252 11.978 30.265 11.7375 30.71C11.4988 31.1551 11.1731 31.4951 10.7602 31.7299C10.3492 31.9629 9.8871 32.0793 9.37384 32.0793C8.85679 32.0793 8.39278 31.9619 7.98179 31.7271C7.57081 31.4922 7.246 31.1523 7.00736 30.7072C6.76873 30.2621 6.64941 29.7233 6.64941 29.0907C6.64941 28.4563 6.76873 27.9165 7.00736 27.4714C7.246 27.0263 7.57081 26.6873 7.98179 26.4544C8.39278 26.2195 8.85679 26.1021 9.37384 26.1021C9.8871 26.1021 10.3492 26.2195 10.7602 26.4544C11.1731 26.6873 11.4988 27.0263 11.7375 27.4714C11.978 27.9165 12.0983 28.4563 12.0983 29.0907ZM10.8511 29.0907C10.8511 28.6797 10.7895 28.3331 10.6664 28.0509C10.5452 27.7687 10.3738 27.5547 10.1522 27.4089C9.93066 27.2631 9.67119 27.1902 9.37384 27.1902C9.07649 27.1902 8.81702 27.2631 8.59543 27.4089C8.37384 27.5547 8.20149 27.7687 8.07838 28.0509C7.95717 28.3331 7.89657 28.6797 7.89657 29.0907C7.89657 29.5017 7.95717 29.8483 8.07838 30.1305C8.20149 30.4127 8.37384 30.6267 8.59543 30.7725C8.81702 30.9184 9.07649 30.9913 9.37384 30.9913C9.67119 30.9913 9.93066 30.9184 10.1522 30.7725C10.3738 30.6267 10.5452 30.4127 10.6664 30.1305C10.7895 29.8483 10.8511 29.5017 10.8511 29.0907Z" fill="#7C7C7C"/>
<path d="M13.0098 26.1816H14.5268L16.1291 30.0907H16.1973L17.7996 26.1816H19.3166V31.9998H18.1234V28.2129H18.0751L16.5694 31.9714H15.7569L14.2513 28.1987H14.203V31.9998H13.0098V26.1816Z" fill="#7C7C7C"/>
<path d="M20.3301 31.9998V26.1816H24.2505V27.1958H21.5602V28.5822H24.0488V29.5964H21.5602V30.9856H24.2619V31.9998H20.3301Z" fill="#7C7C7C"/>
</svg>
