<svg width="40" height="30" viewBox="0 0 40 30" fill="none" xmlns="http://www.w3.org/2000/svg">
<path d="M10 2C10 1.44771 10.4477 1 11 1H29C29.5523 1 30 1.44771 30 2C30 2.55228 29.5523 3 29 3H11C10.4477 3 10 2.55228 10 2Z" fill="#1F1D1D"/>
<path d="M10 9C10 8.44772 10.4477 8 11 8H29C29.5523 8 30 8.44772 30 9C30 9.55229 29.5523 10 29 10H11C10.4477 10 10 9.55229 10 9Z" fill="#1F1D1D"/>
<path d="M11 15C10.4477 15 10 15.4477 10 16C10 16.5523 10.4477 17 11 17H29C29.5523 17 30 16.5523 30 16C30 15.4477 29.5523 15 29 15H11Z" fill="#1F1D1D"/>
<path d="M0.654297 28.9998V23.1816H2.94975C3.39104 23.1816 3.76698 23.2659 4.07759 23.4345C4.3882 23.6011 4.62494 23.8331 4.78782 24.1305C4.95259 24.4259 5.03498 24.7668 5.03498 25.1532C5.03498 25.5396 4.95164 25.8805 4.78498 26.1759C4.61831 26.4714 4.37683 26.7015 4.06054 26.8663C3.74615 27.0311 3.36547 27.1134 2.9185 27.1134H1.45543V26.1276H2.71963C2.95638 26.1276 3.15145 26.0869 3.30486 26.0055C3.46017 25.9221 3.5757 25.8076 3.65145 25.6617C3.7291 25.514 3.76793 25.3445 3.76793 25.1532C3.76793 24.96 3.7291 24.7915 3.65145 24.6475C3.5757 24.5017 3.46017 24.389 3.30486 24.3095C3.14956 24.228 2.95259 24.1873 2.71395 24.1873H1.88441V28.9998H0.654297Z" fill="#7C7C7C"/>
<path d="M5.83398 28.9998V23.1816H8.12944C8.56883 23.1816 8.94383 23.2602 9.25444 23.4174C9.56694 23.5727 9.80463 23.7934 9.9675 24.0793C10.1323 24.3634 10.2147 24.6977 10.2147 25.0822C10.2147 25.4685 10.1313 25.8009 9.96466 26.0793C9.798 26.3559 9.55652 26.568 9.24023 26.7157C8.92584 26.8634 8.54516 26.9373 8.09819 26.9373H6.56125V25.9487H7.89932C8.13417 25.9487 8.32925 25.9165 8.48455 25.8521C8.63985 25.7877 8.75538 25.6911 8.83114 25.5623C8.90879 25.4335 8.94762 25.2735 8.94762 25.0822C8.94762 24.889 8.90879 24.7261 8.83114 24.5936C8.75538 24.461 8.63891 24.3606 8.48171 24.2924C8.32641 24.2223 8.13038 24.1873 7.89364 24.1873H7.06409V28.9998H5.83398ZM8.97603 26.3521L10.4221 28.9998H9.0641L7.64932 26.3521H8.97603Z" fill="#7C7C7C"/>
<path d="M16.4303 26.0911C16.4303 26.7256 16.31 27.2654 16.0695 27.7104C15.8309 28.1555 15.5051 28.4955 15.0922 28.7303C14.6812 28.9633 14.2191 29.0797 13.7059 29.0797C13.1888 29.0797 12.7248 28.9623 12.3138 28.7275C11.9028 28.4926 11.578 28.1527 11.3394 27.7076C11.1007 27.2625 10.9814 26.7237 10.9814 26.0911C10.9814 25.4566 11.1007 24.9169 11.3394 24.4718C11.578 24.0267 11.9028 23.6877 12.3138 23.4547C12.7248 23.2199 13.1888 23.1025 13.7059 23.1025C14.2191 23.1025 14.6812 23.2199 15.0922 23.4547C15.5051 23.6877 15.8309 24.0267 16.0695 24.4718C16.31 24.9169 16.4303 25.4566 16.4303 26.0911ZM15.1831 26.0911C15.1831 25.6801 15.1216 25.3335 14.9985 25.0513C14.8773 24.7691 14.7059 24.5551 14.4843 24.4093C14.2627 24.2635 14.0032 24.1905 13.7059 24.1905C13.4085 24.1905 13.149 24.2635 12.9275 24.4093C12.7059 24.5551 12.5335 24.7691 12.4104 25.0513C12.2892 25.3335 12.2286 25.6801 12.2286 26.0911C12.2286 26.5021 12.2892 26.8487 12.4104 27.1309C12.5335 27.4131 12.7059 27.6271 12.9275 27.7729C13.149 27.9188 13.4085 27.9917 13.7059 27.9917C14.0032 27.9917 14.2627 27.9188 14.4843 27.7729C14.7059 27.6271 14.8773 27.4131 14.9985 27.1309C15.1216 26.8487 15.1831 26.5021 15.1831 26.0911Z" fill="#7C7C7C"/>
<path d="M19.4043 28.9998H17.3418V23.1816H19.4214C20.0066 23.1816 20.5104 23.2981 20.9327 23.531C21.3551 23.7621 21.6799 24.0945 21.9072 24.5282C22.1363 24.9619 22.2509 25.4809 22.2509 26.085C22.2509 26.6911 22.1363 27.2119 21.9072 27.6475C21.6799 28.0831 21.3532 28.4174 20.927 28.6504C20.5028 28.8833 19.9952 28.9998 19.4043 28.9998ZM18.5719 27.9458H19.3532C19.7168 27.9458 20.0227 27.8814 20.2708 27.7526C20.5208 27.622 20.7083 27.4203 20.8333 27.1475C20.9602 26.8729 21.0236 26.5187 21.0236 26.085C21.0236 25.6551 20.9602 25.3038 20.8333 25.031C20.7083 24.7583 20.5217 24.5576 20.2736 24.4288C20.0255 24.3 19.7197 24.2356 19.356 24.2356H18.5719V27.9458Z" fill="#7C7C7C"/>
<path d="M26.7559 23.1816H27.986V26.96C27.986 27.3843 27.8847 27.7555 27.682 28.0737C27.4813 28.3918 27.2 28.64 26.8383 28.818C26.4765 28.9941 26.0551 29.0822 25.5741 29.0822C25.0911 29.0822 24.6688 28.9941 24.307 28.818C23.9453 28.64 23.664 28.3918 23.4633 28.0737C23.2625 27.7555 23.1621 27.3843 23.1621 26.96V23.1816H24.3922V26.8549C24.3922 27.0765 24.4405 27.2735 24.5371 27.4458C24.6356 27.6182 24.7739 27.7536 24.9519 27.8521C25.1299 27.9506 25.3373 27.9998 25.5741 27.9998C25.8127 27.9998 26.0201 27.9506 26.1962 27.8521C26.3742 27.7536 26.5116 27.6182 26.6081 27.4458C26.7066 27.2735 26.7559 27.0765 26.7559 26.8549V23.1816Z" fill="#7C7C7C"/>
<path d="M34.1313 25.219H32.887C32.8642 25.058 32.8178 24.915 32.7478 24.79C32.6777 24.6631 32.5877 24.5551 32.4779 24.4661C32.368 24.3771 32.2411 24.3089 32.0972 24.2616C31.9552 24.2142 31.8008 24.1905 31.6341 24.1905C31.333 24.1905 31.0707 24.2654 30.8472 24.415C30.6237 24.5627 30.4504 24.7786 30.3273 25.0627C30.2042 25.3449 30.1426 25.6877 30.1426 26.0911C30.1426 26.5059 30.2042 26.8544 30.3273 27.1366C30.4523 27.4188 30.6266 27.6318 30.85 27.7758C31.0735 27.9197 31.332 27.9917 31.6256 27.9917C31.7904 27.9917 31.9428 27.9699 32.083 27.9263C32.225 27.8828 32.351 27.8193 32.4608 27.736C32.5707 27.6508 32.6616 27.5475 32.7336 27.4263C32.8074 27.3051 32.8586 27.1669 32.887 27.0116L34.1313 27.0172C34.0991 27.2843 34.0186 27.5419 33.8898 27.79C33.7629 28.0362 33.5915 28.2568 33.3756 28.4519C33.1616 28.6451 32.9059 28.7985 32.6086 28.9121C32.3131 29.0239 31.9788 29.0797 31.6057 29.0797C31.0868 29.0797 30.6228 28.9623 30.2137 28.7275C29.8065 28.4926 29.4845 28.1527 29.2478 27.7076C29.0129 27.2625 28.8955 26.7237 28.8955 26.0911C28.8955 25.4566 29.0148 24.9169 29.2534 24.4718C29.4921 24.0267 29.8159 23.6877 30.225 23.4547C30.6341 23.2199 31.0944 23.1025 31.6057 23.1025C31.9428 23.1025 32.2553 23.1498 32.5432 23.2445C32.833 23.3392 33.0896 23.4775 33.3131 23.6593C33.5366 23.8392 33.7184 24.0599 33.8586 24.3212C34.0006 24.5826 34.0915 24.8818 34.1313 25.219Z" fill="#7C7C7C"/>
<path d="M34.792 24.1958V23.1816H39.5704V24.1958H37.7892V28.9998H36.5732V24.1958H34.792Z" fill="#7C7C7C"/>
</svg>
