<svg width="22" height="34" viewBox="0 0 22 34" fill="none" xmlns="http://www.w3.org/2000/svg">
<path fill-rule="evenodd" clip-rule="evenodd" d="M11 14.4603C13.3078 14.4603 15.1786 12.5895 15.1786 10.2817C15.1786 7.97394 13.3078 6.10313 11 6.10313C8.69223 6.10313 6.82142 7.97394 6.82142 10.2817C6.82142 12.5895 8.69223 14.4603 11 14.4603ZM11 12.6031C12.2821 12.6031 13.3214 11.5638 13.3214 10.2817C13.3214 8.99961 12.2821 7.96027 11 7.96027C9.7179 7.96027 8.67856 8.99961 8.67856 10.2817C8.67856 11.5638 9.7179 12.6031 11 12.6031Z" fill="#1F1D1D"/>
<path fill-rule="evenodd" clip-rule="evenodd" d="M19.3571 21.4971C20.3828 21.4971 21.2143 20.6656 21.2143 19.64V4.78282C21.2143 3.75715 20.3828 2.92568 19.3571 2.92568H13.781C13.5248 2.92568 13.2799 2.81981 13.1044 2.63314L11.7615 1.20465C11.401 0.821225 10.7943 0.813692 10.4244 1.18805L8.98022 2.64974C8.80576 2.8263 8.56788 2.92568 8.31967 2.92568H2.64285C1.61718 2.92568 0.785706 3.75715 0.785706 4.78282V19.64C0.785706 20.6656 1.61718 21.4971 2.64285 21.4971H19.3571ZM19.3571 19.64V4.78282H13.781C13.0123 4.78282 12.2778 4.46522 11.7513 3.9052L11.0683 3.17868L10.3013 3.955C9.77795 4.4847 9.06431 4.78282 8.31967 4.78282L2.64285 4.78282L2.64285 19.64L4.24453 19.64C4.36549 17.1836 6.39535 15.2292 8.88169 15.2292H13.4375C15.9238 15.2292 17.9537 17.1836 18.0746 19.64L19.3571 19.64ZM16.2137 19.64C16.0957 18.2101 14.8978 17.0864 13.4375 17.0864H8.88169C7.42135 17.0864 6.22347 18.2101 6.10551 19.64H16.2137Z" fill="#1F1D1D"/>
<path d="M4.94708 28.1817H6.46412L8.0664 32.0908H8.13458L9.73685 28.1817H11.2539V33.9999H10.0607V30.213H10.0124L8.50674 33.9715H7.69424L6.18856 30.1988H6.14026V33.9999H4.94708V28.1817Z" fill="#1F1D1D"/>
<path d="M11.9265 28.1817H13.3043L14.631 30.6874H14.6878L16.0146 28.1817H17.3924L15.2702 31.9431V33.9999H14.0486V31.9431L11.9265 28.1817Z" fill="#1F1D1D"/>
</svg>
