<svg width="11" height="11" viewBox="0 0 11 11" fill="none" xmlns="http://www.w3.org/2000/svg">
<path d="M3.4375 2.0625C3.4375 0.923413 4.36091 0 5.5 0C6.63909 0 7.5625 0.923413 7.5625 2.0625V5.5C7.5625 6.63909 6.63909 7.5625 5.5 7.5625C4.36091 7.5625 3.4375 6.63909 3.4375 5.5V2.0625Z" fill="white"/>
<path d="M2.40625 4.46875C2.5961 4.46875 2.75 4.62265 2.75 4.8125V5.5C2.75 7.01878 3.98122 8.25 5.5 8.25C7.01878 8.25 8.25 7.01878 8.25 5.5V4.8125C8.25 4.62265 8.4039 4.46875 8.59375 4.46875C8.7836 4.46875 8.9375 4.62265 8.9375 4.8125V5.5C8.9375 7.28246 7.58083 8.74806 5.84375 8.92053V10.3125H7.90625C8.0961 10.3125 8.25 10.4664 8.25 10.6562C8.25 10.8461 8.0961 11 7.90625 11H3.09375C2.9039 11 2.75 10.8461 2.75 10.6562C2.75 10.4664 2.9039 10.3125 3.09375 10.3125H5.15625V8.92053C3.41917 8.74806 2.0625 7.28246 2.0625 5.5V4.8125C2.0625 4.62265 2.2164 4.46875 2.40625 4.46875Z" fill="white"/>
</svg>
