<svg width="28" height="35" viewBox="0 0 28 35" fill="none" xmlns="http://www.w3.org/2000/svg">
<path d="M12.6122 13.3195L8.27034 14.5387C7.73862 14.688 7.18654 14.378 7.03723 13.8462C6.88793 13.3145 7.19794 12.7624 7.72966 12.6131L12.7067 11.2156C13.6635 10.9469 14.6122 11.666 14.6122 12.6597V13.5583L18.6497 12.0483C19.167 11.8548 19.7432 12.1173 19.9366 12.6346C20.1301 13.1519 19.8676 13.7281 19.3503 13.9216L14.6377 15.6841C13.6573 16.0508 12.6122 15.3259 12.6122 14.2792V13.3195Z" fill="#1F1D1D"/>
<path fill-rule="evenodd" clip-rule="evenodd" d="M12.0039 0.292893C11.6134 -0.0976311 10.9802 -0.0976311 10.5897 0.292893C10.1991 0.683417 10.1991 1.31658 10.5897 1.70711L12.0286 3.146H10C6.68629 3.146 4 5.83229 4 9.146V16.8912C4 20.2049 6.68629 22.8912 10 22.8912H17.7452C21.0589 22.8912 23.7452 20.2049 23.7452 16.8912V9.146C23.7452 5.83229 21.0589 3.146 17.7452 3.146H15.7159L17.1548 1.70711C17.5453 1.31658 17.5453 0.683417 17.1548 0.292893C16.7643 -0.0976311 16.1311 -0.0976311 15.7406 0.292893L13.8722 2.16124L12.0039 0.292893ZM17.7452 5.146H10C7.79086 5.146 6 6.93686 6 9.146V16.8912C6 19.1003 7.79086 20.8912 10 20.8912H17.7452C19.9543 20.8912 21.7452 19.1003 21.7452 16.8912V9.146C21.7452 6.93686 19.9543 5.146 17.7452 5.146Z" fill="#1F1D1D"/>
<path d="M6.1179 31.0909C6.1179 31.7254 5.99764 32.2652 5.75711 32.7102C5.51847 33.1553 5.19271 33.4953 4.77983 33.7301C4.36885 33.9631 3.90673 34.0795 3.39347 34.0795C2.87642 34.0795 2.41241 33.9621 2.00142 33.7273C1.59044 33.4924 1.26563 33.1525 1.02699 32.7074C0.788355 32.2623 0.669037 31.7235 0.669037 31.0909C0.669037 30.4564 0.788355 29.9167 1.02699 29.4716C1.26563 29.0265 1.59044 28.6875 2.00142 28.4545C2.41241 28.2197 2.87642 28.1023 3.39347 28.1023C3.90673 28.1023 4.36885 28.2197 4.77983 28.4545C5.19271 28.6875 5.51847 29.0265 5.75711 29.4716C5.99764 29.9167 6.1179 30.4564 6.1179 31.0909ZM4.87074 31.0909C4.87074 30.6799 4.80919 30.3333 4.68608 30.0511C4.56487 29.7689 4.39347 29.5549 4.17188 29.4091C3.95029 29.2633 3.69082 29.1903 3.39347 29.1903C3.09612 29.1903 2.83665 29.2633 2.61506 29.4091C2.39347 29.5549 2.22112 29.7689 2.09801 30.0511C1.9768 30.3333 1.9162 30.6799 1.9162 31.0909C1.9162 31.5019 1.9768 31.8485 2.09801 32.1307C2.22112 32.4129 2.39347 32.6269 2.61506 32.7727C2.83665 32.9186 3.09612 32.9915 3.39347 32.9915C3.69082 32.9915 3.95029 32.9186 4.17188 32.7727C4.39347 32.6269 4.56487 32.4129 4.68608 32.1307C4.80919 31.8485 4.87074 31.5019 4.87074 31.0909Z" fill="#1F1D1D"/>
<path d="M11.8956 28.1818V34H10.8331L8.30185 30.3381H8.25924V34H7.02912V28.1818H8.10867L10.62 31.8409H10.6712V28.1818H11.8956Z" fill="#1F1D1D"/>
<path d="M15.7663 34H14.4482L16.4567 28.1818H18.0419L20.0476 34H18.7294L17.272 29.5114H17.2266L15.7663 34ZM15.684 31.7131H18.7976V32.6733H15.684V31.7131Z" fill="#1F1D1D"/>
<path d="M21.978 28.1818V34H20.7479V28.1818H21.978Z" fill="#1F1D1D"/>
<path d="M22.9901 34V28.1818H25.2855C25.7249 28.1818 26.0999 28.2604 26.4105 28.4176C26.723 28.5729 26.9607 28.7936 27.1236 29.0795C27.2884 29.3636 27.3707 29.6979 27.3707 30.0824C27.3707 30.4687 27.2874 30.8011 27.1207 31.0795C26.9541 31.3561 26.7126 31.5682 26.3963 31.7159C26.0819 31.8636 25.7012 31.9375 25.2543 31.9375H23.7173V30.9489H25.0554C25.2902 30.9489 25.4853 30.9167 25.6406 30.8523C25.7959 30.7879 25.9115 30.6913 25.9872 30.5625C26.0649 30.4337 26.1037 30.2737 26.1037 30.0824C26.1037 29.8892 26.0649 29.7263 25.9872 29.5938C25.9115 29.4612 25.795 29.3608 25.6378 29.2926C25.4825 29.2225 25.2865 29.1875 25.0497 29.1875H24.2202V34H22.9901ZM26.1321 31.3523L27.5781 34H26.2202L24.8054 31.3523H26.1321Z" fill="#1F1D1D"/>
</svg>
