<svg width="28" height="35" viewBox="0 0 28 35" fill="none" xmlns="http://www.w3.org/2000/svg">
<g clip-path="url(#clip0_1916_701)">
<path d="M12.612 13.3194L8.27011 14.5386C7.73839 14.6879 7.18631 14.3779 7.037 13.8461C6.8877 13.3144 7.19771 12.7623 7.72943 12.613L12.7065 11.2155C13.6633 10.9468 14.612 11.6659 14.612 12.6596V13.5582L18.6495 12.0482C19.1668 11.8547 19.743 12.1172 19.9364 12.6345C20.1299 13.1518 19.8674 13.728 19.3501 13.9215L14.6375 15.684C13.6571 16.0507 12.612 15.3258 12.612 14.2791V13.3194Z" fill="#1F1D1D"/>
<path fill-rule="evenodd" clip-rule="evenodd" d="M12.0039 0.292893C11.6134 -0.097631 10.9802 -0.097631 10.5897 0.292893C10.1991 0.683417 10.1991 1.31658 10.5897 1.70711L12.0286 3.146H10C6.68629 3.146 4 5.83229 4 9.146V16.8912C4 20.2049 6.68629 22.8912 10 22.8912H17.7452C21.0589 22.8912 23.7452 20.2049 23.7452 16.8912V9.146C23.7452 5.83229 21.0589 3.146 17.7452 3.146H15.7159L17.1548 1.70711C17.5453 1.31658 17.5453 0.683417 17.1548 0.292893C16.7643 -0.097631 16.1311 -0.097631 15.7406 0.292893L13.8722 2.16124L12.0039 0.292893ZM17.7452 5.146H10C7.79086 5.146 6 6.93686 6 9.146V16.8912C6 19.1003 7.79086 20.8912 10 20.8912H17.7452C19.9543 20.8912 21.7452 19.1003 21.7452 16.8912V9.146C21.7452 6.93686 19.9543 5.146 17.7452 5.146Z" fill="#1F1D1D"/>
<path d="M6.11781 31.0911C6.11781 31.7256 5.99755 32.2654 5.75702 32.7104C5.51838 33.1555 5.19262 33.4955 4.77974 33.7303C4.36876 33.9633 3.90664 34.0797 3.39338 34.0797C2.87633 34.0797 2.41232 33.9623 2.00133 33.7275C1.59035 33.4926 1.26554 33.1527 1.0269 32.7076C0.788263 32.2625 0.668945 31.7237 0.668945 31.0911C0.668945 30.4566 0.788263 29.9169 1.0269 29.4718C1.26554 29.0267 1.59035 28.6877 2.00133 28.4547C2.41232 28.2199 2.87633 28.1025 3.39338 28.1025C3.90664 28.1025 4.36876 28.2199 4.77974 28.4547C5.19262 28.6877 5.51838 29.0267 5.75702 29.4718C5.99755 29.9169 6.11781 30.4566 6.11781 31.0911ZM4.87065 31.0911C4.87065 30.6801 4.8091 30.3335 4.68599 30.0513C4.56478 29.7691 4.39338 29.5551 4.17179 29.4093C3.9502 29.2635 3.69073 29.1905 3.39338 29.1905C3.09603 29.1905 2.83656 29.2635 2.61497 29.4093C2.39338 29.5551 2.22103 29.7691 2.09792 30.0513C1.97671 30.3335 1.91611 30.6801 1.91611 31.0911C1.91611 31.5021 1.97671 31.8487 2.09792 32.1309C2.22103 32.4131 2.39338 32.6271 2.61497 32.7729C2.83656 32.9188 3.09603 32.9917 3.39338 32.9917C3.69073 32.9917 3.9502 32.9188 4.17179 32.7729C4.39338 32.6271 4.56478 32.4131 4.68599 32.1309C4.8091 31.8487 4.87065 31.5021 4.87065 31.0911Z" fill="#7C7C7C"/>
<path d="M11.8958 28.1816V33.9998H10.8333L8.30203 30.3379H8.25942V33.9998H7.0293V28.1816H8.10885L10.6202 31.8407H10.6714V28.1816H11.8958Z" fill="#7C7C7C"/>
<path d="M15.7663 33.9998H14.4482L16.4567 28.1816H18.0419L20.0476 33.9998H18.7294L17.272 29.5112H17.2266L15.7663 33.9998ZM15.684 31.7129H18.7976V32.6731H15.684V31.7129Z" fill="#7C7C7C"/>
<path d="M21.9781 28.1816V33.9998H20.748V28.1816H21.9781Z" fill="#7C7C7C"/>
<path d="M22.9902 33.9998V28.1816H25.2856C25.725 28.1816 26.1 28.2602 26.4106 28.4174C26.7231 28.5727 26.9608 28.7934 27.1237 29.0793C27.2885 29.3634 27.3708 29.6977 27.3708 30.0822C27.3708 30.4685 27.2875 30.8009 27.1208 31.0793C26.9542 31.3559 26.7127 31.568 26.3964 31.7157C26.082 31.8634 25.7013 31.9373 25.2544 31.9373H23.7174V30.9487H25.0555C25.2903 30.9487 25.4854 30.9165 25.6407 30.8521C25.796 30.7877 25.9116 30.6911 25.9873 30.5623C26.065 30.4335 26.1038 30.2735 26.1038 30.0822C26.1038 29.889 26.065 29.7261 25.9873 29.5936C25.9116 29.461 25.7951 29.3606 25.6379 29.2924C25.4826 29.2223 25.2866 29.1873 25.0498 29.1873H24.2203V33.9998H22.9902ZM26.1322 31.3521L27.5782 33.9998H26.2203L24.8055 31.3521H26.1322Z" fill="#7C7C7C"/>
</g>
<defs>
<clipPath id="clip0_1916_701">
<rect width="28" height="35" fill="white"/>
</clipPath>
</defs>
</svg>
