<svg width="34" height="33" viewBox="0 0 34 33" fill="none" xmlns="http://www.w3.org/2000/svg">
<path fill-rule="evenodd" clip-rule="evenodd" d="M21.1121 16.3749C19.6001 17.6079 17.6696 18.3474 15.5665 18.3474C10.7169 18.3474 6.78564 14.416 6.78564 9.5665C6.78564 4.71697 10.7169 0.785645 15.5665 0.785645C20.416 0.785645 24.3473 4.71697 24.3473 9.5665C24.3473 11.6697 23.6079 13.6002 22.3748 15.1122L27.0923 19.8296C27.4409 20.1783 27.4409 20.7436 27.0923 21.0923C26.7436 21.441 26.1782 21.441 25.8296 21.0923L21.1121 16.3749ZM22.5616 9.5665C22.5616 13.4298 19.4298 16.5616 15.5665 16.5616C11.7032 16.5616 8.57135 13.4298 8.57135 9.5665C8.57135 5.70319 11.7032 2.57136 15.5665 2.57136C19.4298 2.57136 22.5616 5.70319 22.5616 9.5665Z" fill="#1F1D1D"/>
<path d="M3.98242 27.8549C3.95969 27.6258 3.86215 27.4477 3.68981 27.3209C3.51746 27.194 3.28356 27.1305 2.9881 27.1305C2.78734 27.1305 2.61784 27.1589 2.47958 27.2157C2.34132 27.2707 2.23526 27.3474 2.1614 27.4459C2.08943 27.5443 2.05344 27.6561 2.05344 27.7811C2.04965 27.8852 2.07143 27.9762 2.11878 28.0538C2.16802 28.1315 2.23526 28.1987 2.32049 28.2555C2.40571 28.3104 2.5042 28.3587 2.61594 28.4004C2.72768 28.4402 2.847 28.4743 2.9739 28.5027L3.49662 28.6277C3.75041 28.6845 3.98337 28.7602 4.19549 28.8549C4.40761 28.9496 4.59132 29.0661 4.74662 29.2044C4.90193 29.3426 5.02219 29.5055 5.10742 29.693C5.19454 29.8805 5.23905 30.0955 5.24094 30.3379C5.23905 30.694 5.14814 31.0027 4.96821 31.264C4.79018 31.5235 4.53261 31.7252 4.19549 31.8691C3.86026 32.0112 3.4559 32.0821 2.98242 32.0821C2.51272 32.0821 2.10363 32.0102 1.75515 31.8663C1.40856 31.7224 1.13772 31.5093 0.942649 31.2271C0.749467 30.943 0.648141 30.5917 0.638672 30.1731H1.82901C1.84227 30.3682 1.89814 30.5311 1.99662 30.6618C2.097 30.7905 2.23052 30.8881 2.39719 30.9544C2.56575 31.0188 2.75609 31.051 2.96821 31.051C3.17655 31.051 3.35742 31.0207 3.51083 30.9601C3.66613 30.8995 3.7864 30.8152 3.87162 30.7072C3.95685 30.5993 3.99946 30.4752 3.99946 30.3351C3.99946 30.2044 3.96064 30.0945 3.88299 30.0055C3.80723 29.9165 3.69549 29.8407 3.54776 29.7782C3.40193 29.7157 3.22295 29.6589 3.01083 29.6078L2.37731 29.4487C1.88677 29.3294 1.49946 29.1428 1.21537 28.889C0.931285 28.6352 0.790187 28.2934 0.792081 27.8635C0.790187 27.5112 0.883937 27.2034 1.07333 26.9402C1.26462 26.6769 1.52693 26.4714 1.86026 26.3237C2.19359 26.176 2.57238 26.1021 2.99662 26.1021C3.42844 26.1021 3.80534 26.176 4.12731 26.3237C4.45117 26.4714 4.70306 26.6769 4.88299 26.9402C5.06291 27.2034 5.15571 27.5084 5.1614 27.8549H3.98242Z" fill="#7C7C7C"/>
<path d="M6.06836 31.9998V26.1816H9.98881V27.1959H7.29847V28.5822H9.78711V29.5964H7.29847V30.9856H10.0002V31.9998H6.06836Z" fill="#7C7C7C"/>
<path d="M11.9696 31.9998H10.6514L12.6599 26.1816H14.2451L16.2508 31.9998H14.9326L13.4752 27.5112H13.4298L11.9696 31.9998ZM11.8872 29.7129H15.0008V30.6731H11.8872V29.7129Z" fill="#7C7C7C"/>
<path d="M16.9512 31.9998V26.1816H19.2466C19.686 26.1816 20.061 26.2602 20.3716 26.4174C20.6841 26.5727 20.9218 26.7934 21.0847 27.0794C21.2495 27.3635 21.3319 27.6977 21.3319 28.0822C21.3319 28.4686 21.2485 28.801 21.0819 29.0794C20.9152 29.3559 20.6737 29.568 20.3574 29.7157C20.043 29.8635 19.6624 29.9373 19.2154 29.9373H17.6785V28.9487H19.0165C19.2514 28.9487 19.4465 28.9165 19.6018 28.8521C19.7571 28.7877 19.8726 28.6911 19.9483 28.5623C20.026 28.4335 20.0648 28.2735 20.0648 28.0822C20.0648 27.889 20.026 27.7262 19.9483 27.5936C19.8726 27.461 19.7561 27.3606 19.5989 27.2924C19.4436 27.2224 19.2476 27.1873 19.0108 27.1873H18.1813V31.9998H16.9512ZM20.0932 29.3521L21.5393 31.9998H20.1813L18.7665 29.3521H20.0932Z" fill="#7C7C7C"/>
<path d="M27.3344 28.2186H26.0901C26.0674 28.0576 26.021 27.9146 25.9509 27.7896C25.8808 27.6627 25.7909 27.5548 25.681 27.4657C25.5712 27.3767 25.4443 27.3085 25.3003 27.2612C25.1583 27.2138 25.0039 27.1902 24.8373 27.1902C24.5361 27.1902 24.2738 27.265 24.0503 27.4146C23.8268 27.5623 23.6535 27.7782 23.5304 28.0623C23.4073 28.3445 23.3458 28.6873 23.3458 29.0907C23.3458 29.5055 23.4073 29.854 23.5304 30.1362C23.6554 30.4184 23.8297 30.6315 24.0532 30.7754C24.2766 30.9193 24.5352 30.9913 24.8287 30.9913C24.9935 30.9913 25.146 30.9695 25.2861 30.926C25.4282 30.8824 25.5541 30.819 25.664 30.7356C25.7738 30.6504 25.8647 30.5472 25.9367 30.426C26.0105 30.3048 26.0617 30.1665 26.0901 30.0112L27.3344 30.0169C27.3022 30.2839 27.2217 30.5415 27.0929 30.7896C26.966 31.0358 26.7946 31.2565 26.5787 31.4515C26.3647 31.6447 26.109 31.7981 25.8117 31.9118C25.5162 32.0235 25.1819 32.0793 24.8088 32.0793C24.2899 32.0793 23.8259 31.962 23.4168 31.7271C23.0096 31.4923 22.6876 31.1523 22.4509 30.7072C22.216 30.2621 22.0986 29.7233 22.0986 29.0907C22.0986 28.4563 22.2179 27.9165 22.4566 27.4714C22.6952 27.0263 23.0191 26.6873 23.4282 26.4544C23.8373 26.2195 24.2975 26.1021 24.8088 26.1021C25.146 26.1021 25.4585 26.1495 25.7463 26.2441C26.0361 26.3388 26.2927 26.4771 26.5162 26.6589C26.7397 26.8388 26.9215 27.0595 27.0617 27.3209C27.2037 27.5822 27.2946 27.8815 27.3344 28.2186Z" fill="#7C7C7C"/>
<path d="M28.2168 31.9998V26.1816H29.4469V28.5822H31.9441V26.1816H33.1714V31.9998H31.9441V29.5964H29.4469V31.9998H28.2168Z" fill="#7C7C7C"/>
</svg>
