<svg width="34" height="33" viewBox="0 0 34 33" fill="none" xmlns="http://www.w3.org/2000/svg">
<path fill-rule="evenodd" clip-rule="evenodd" d="M21.1122 16.3749C19.6002 17.6079 17.6697 18.3474 15.5666 18.3474C10.717 18.3474 6.78571 14.416 6.78571 9.5665C6.78571 4.71697 10.717 0.785645 15.5666 0.785645C20.4161 0.785645 24.3474 4.71697 24.3474 9.5665C24.3474 11.6697 23.608 13.6002 22.3749 15.1122L27.0924 19.8296C27.441 20.1783 27.441 20.7436 27.0924 21.0923C26.7437 21.441 26.1783 21.441 25.8297 21.0923L21.1122 16.3749ZM22.5617 9.5665C22.5617 13.4298 19.4299 16.5616 15.5666 16.5616C11.7033 16.5616 8.57142 13.4298 8.57142 9.5665C8.57142 5.70319 11.7033 2.57136 15.5666 2.57136C19.4299 2.57136 22.5617 5.70319 22.5617 9.5665Z" fill="#1F1D1D"/>
<path d="M3.98224 27.855C3.95951 27.6259 3.86197 27.4478 3.68963 27.321C3.51728 27.1941 3.28338 27.1306 2.98792 27.1306C2.78716 27.1306 2.61766 27.159 2.4794 27.2158C2.34114 27.2708 2.23508 27.3475 2.16122 27.446C2.08925 27.5444 2.05326 27.6562 2.05326 27.7812C2.04947 27.8853 2.07125 27.9763 2.1186 28.0539C2.16784 28.1316 2.23508 28.1988 2.32031 28.2556C2.40553 28.3105 2.50402 28.3588 2.61576 28.4005C2.7275 28.4403 2.84682 28.4744 2.97372 28.5028L3.49644 28.6278C3.75023 28.6846 3.98319 28.7603 4.19531 28.855C4.40743 28.9497 4.59114 29.0662 4.74644 29.2045C4.90175 29.3427 5.02201 29.5056 5.10724 29.6931C5.19436 29.8806 5.23887 30.0956 5.24076 30.338C5.23887 30.6941 5.14796 31.0028 4.96803 31.2641C4.79 31.5236 4.53243 31.7253 4.19531 31.8692C3.86008 32.0113 3.45572 32.0823 2.98224 32.0823C2.51254 32.0823 2.10345 32.0103 1.75497 31.8664C1.40838 31.7225 1.13754 31.5094 0.942466 31.2272C0.749284 30.9431 0.647958 30.5918 0.638489 30.1732H1.82883C1.84209 30.3683 1.89796 30.5312 1.99644 30.6619C2.09682 30.7906 2.23034 30.8882 2.39701 30.9545C2.56557 31.0189 2.75591 31.0511 2.96803 31.0511C3.17637 31.0511 3.35724 31.0208 3.51065 30.9602C3.66595 30.8996 3.78622 30.8153 3.87144 30.7073C3.95667 30.5994 3.99928 30.4753 3.99928 30.3352C3.99928 30.2045 3.96046 30.0946 3.88281 30.0056C3.80705 29.9166 3.69531 29.8408 3.54758 29.7783C3.40175 29.7158 3.22277 29.659 3.01065 29.6079L2.37713 29.4488C1.88659 29.3295 1.49928 29.1429 1.21519 28.8891C0.931102 28.6353 0.790004 28.2935 0.791898 27.8636C0.790004 27.5113 0.883754 27.2035 1.07315 26.9403C1.26444 26.677 1.52675 26.4715 1.86008 26.3238C2.19341 26.1761 2.5722 26.1022 2.99644 26.1022C3.42826 26.1022 3.80516 26.1761 4.12713 26.3238C4.45099 26.4715 4.70288 26.677 4.88281 26.9403C5.06273 27.2035 5.15553 27.5085 5.16122 27.855H3.98224Z" fill="#1F1D1D"/>
<path d="M6.06818 31.9999V26.1817H9.98863V27.196H7.29829V28.5823H9.78693V29.5965H7.29829V30.9857H9.99999V31.9999H6.06818Z" fill="#1F1D1D"/>
<path d="M11.9695 31.9999H10.6513L12.6598 26.1817H14.245L16.2507 31.9999H14.9325L13.4751 27.5113H13.4297L11.9695 31.9999ZM11.8871 29.713H15.0007V30.6732H11.8871V29.713Z" fill="#1F1D1D"/>
<path d="M16.951 31.9999V26.1817H19.2464C19.6858 26.1817 20.0608 26.2603 20.3714 26.4175C20.6839 26.5728 20.9216 26.7935 21.0845 27.0795C21.2493 27.3636 21.3317 27.6978 21.3317 28.0823C21.3317 28.4687 21.2483 28.8011 21.0817 29.0795C20.915 29.356 20.6735 29.5681 20.3572 29.7158C20.0428 29.8636 19.6622 29.9374 19.2152 29.9374H17.6783V28.9488H19.0163C19.2512 28.9488 19.4463 28.9166 19.6016 28.8522C19.7569 28.7878 19.8724 28.6912 19.9481 28.5624C20.0258 28.4336 20.0646 28.2736 20.0646 28.0823C20.0646 27.8891 20.0258 27.7263 19.9481 27.5937C19.8724 27.4611 19.7559 27.3607 19.5987 27.2925C19.4434 27.2225 19.2474 27.1874 19.0106 27.1874H18.1811V31.9999H16.951ZM20.093 29.3522L21.5391 31.9999H20.1811L18.7663 29.3522H20.093Z" fill="#1F1D1D"/>
<path d="M27.3345 28.2187H26.0902C26.0675 28.0577 26.0211 27.9147 25.951 27.7897C25.8809 27.6628 25.791 27.5549 25.6811 27.4658C25.5713 27.3768 25.4444 27.3086 25.3004 27.2613C25.1584 27.2139 25.004 27.1903 24.8374 27.1903C24.5362 27.1903 24.2739 27.2651 24.0504 27.4147C23.8269 27.5624 23.6536 27.7783 23.5305 28.0624C23.4074 28.3446 23.3459 28.6874 23.3459 29.0908C23.3459 29.5056 23.4074 29.8541 23.5305 30.1363C23.6555 30.4185 23.8298 30.6316 24.0533 30.7755C24.2767 30.9194 24.5353 30.9914 24.8288 30.9914C24.9936 30.9914 25.1461 30.9696 25.2862 30.9261C25.4283 30.8825 25.5542 30.8191 25.6641 30.7357C25.7739 30.6505 25.8648 30.5473 25.9368 30.4261C26.0106 30.3049 26.0618 30.1666 26.0902 30.0113L27.3345 30.017C27.3023 30.284 27.2218 30.5416 27.093 30.7897C26.9661 31.0359 26.7947 31.2566 26.5788 31.4516C26.3648 31.6448 26.1091 31.7982 25.8118 31.9119C25.5163 32.0236 25.182 32.0795 24.8089 32.0795C24.29 32.0795 23.826 31.9621 23.4169 31.7272C23.0097 31.4924 22.6877 31.1524 22.451 30.7073C22.2161 30.2622 22.0987 29.7234 22.0987 29.0908C22.0987 28.4564 22.218 27.9166 22.4567 27.4715C22.6953 27.0264 23.0192 26.6874 23.4283 26.4545C23.8374 26.2196 24.2976 26.1022 24.8089 26.1022C25.1461 26.1022 25.4586 26.1496 25.7464 26.2442C26.0362 26.3389 26.2928 26.4772 26.5163 26.659C26.7398 26.8389 26.9216 27.0596 27.0618 27.321C27.2038 27.5823 27.2947 27.8816 27.3345 28.2187Z" fill="#1F1D1D"/>
<path d="M28.2166 31.9999V26.1817H29.4467V28.5823H31.9439V26.1817H33.1712V31.9999H31.9439V29.5965H29.4467V31.9999H28.2166Z" fill="#1F1D1D"/>
</svg>
