<svg width="28" height="28" viewBox="0 0 28 28" fill="none" xmlns="http://www.w3.org/2000/svg">
<path fill-rule="evenodd" clip-rule="evenodd" d="M18.0457 19.4599C16.3523 20.841 14.1901 21.6691 11.8346 21.6691C6.40308 21.6691 2 17.266 2 11.8346C2 6.40308 6.40308 2 11.8346 2C17.266 2 21.6691 6.40308 21.6691 11.8346C21.6691 14.1901 20.841 16.3523 19.4599 18.0457L24.7434 23.3292C25.134 23.7198 25.134 24.3529 24.7434 24.7434C24.3529 25.134 23.7198 25.134 23.3292 24.7434L18.0457 19.4599ZM19.6691 11.8346C19.6691 16.1615 16.1615 19.6691 11.8346 19.6691C7.50765 19.6691 4 16.1615 4 11.8346C4 7.50765 7.50765 4 11.8346 4C16.1615 4 19.6691 7.50765 19.6691 11.8346Z" fill="black"/>
</svg>
