<svg width="24" height="24" viewBox="0 0 24 24" fill="none" xmlns="http://www.w3.org/2000/svg">
<path fill-rule="evenodd" clip-rule="evenodd" d="M20.2803 4.28033C20.5732 3.98744 20.5732 3.51256 20.2803 3.21967C19.9874 2.92678 19.5126 2.92678 19.2197 3.21967L11.75 10.6893L4.28033 3.21967C3.98744 2.92678 3.51256 2.92678 3.21967 3.21967C2.92678 3.51256 2.92678 3.98744 3.21967 4.28033L10.6893 11.75L3.21967 19.2197C2.92678 19.5126 2.92678 19.9874 3.21967 20.2803C3.51256 20.5732 3.98744 20.5732 4.28033 20.2803L11.75 12.8107L19.2197 20.2803C19.5126 20.5732 19.9874 20.5732 20.2803 20.2803C20.5732 19.9874 20.5732 19.5126 20.2803 19.2197L12.8107 11.75L20.2803 4.28033Z" fill="black"/>
</svg>
