<svg width="371" height="214" viewBox="0 0 371 214" fill="none" xmlns="http://www.w3.org/2000/svg">
<rect x="0.847168" y="0.898315" width="370" height="212.925" fill="#FFDF50"/>
<path d="M164.441 63.9097L164.427 62.8727H164.598L166.984 60.4438H168.021L165.478 63.0148H165.407L164.441 63.9097ZM163.66 65.8983V58.6256H164.498V65.8983H163.66ZM167.126 65.8983L164.995 63.1995L165.592 62.6171L168.191 65.8983H167.126ZM170.705 66.0262C170.359 66.0262 170.045 65.9611 169.764 65.8308C169.482 65.6983 169.258 65.5077 169.092 65.2591C168.927 65.0082 168.844 64.7051 168.844 64.35C168.844 64.0375 168.905 63.7842 169.029 63.5901C169.152 63.3936 169.316 63.2397 169.522 63.1284C169.728 63.0172 169.955 62.9343 170.204 62.8798C170.455 62.823 170.707 62.7781 170.96 62.7449C171.292 62.7023 171.561 62.6703 171.766 62.649C171.975 62.6254 172.126 62.5863 172.221 62.5318C172.318 62.4774 172.367 62.3827 172.367 62.2477V62.2193C172.367 61.869 172.271 61.5967 172.079 61.4026C171.89 61.2084 171.602 61.1114 171.216 61.1114C170.816 61.1114 170.502 61.199 170.275 61.3742C170.048 61.5494 169.888 61.7364 169.796 61.9352L169 61.6512C169.142 61.3197 169.332 61.0617 169.568 60.877C169.807 60.69 170.068 60.5598 170.35 60.4864C170.634 60.4106 170.913 60.3727 171.188 60.3727C171.363 60.3727 171.564 60.3941 171.791 60.4367C172.021 60.4769 172.242 60.561 172.455 60.6888C172.671 60.8166 172.85 61.0096 172.992 61.2676C173.134 61.5257 173.205 61.8713 173.205 62.3046V65.8983H172.367V65.1597H172.324C172.267 65.2781 172.172 65.4047 172.04 65.5397C171.907 65.6746 171.731 65.7894 171.511 65.8841C171.291 65.9788 171.022 66.0262 170.705 66.0262ZM170.833 65.2733C171.164 65.2733 171.443 65.2082 171.671 65.078C171.9 64.9478 172.073 64.7797 172.189 64.5737C172.307 64.3678 172.367 64.1512 172.367 63.9239V63.1568C172.331 63.1995 172.253 63.2385 172.132 63.274C172.014 63.3072 171.877 63.3368 171.72 63.3628C171.566 63.3865 171.416 63.4078 171.269 63.4267C171.125 63.4433 171.008 63.4575 170.918 63.4693C170.7 63.4977 170.496 63.5439 170.307 63.6078C170.12 63.6694 169.968 63.7629 169.852 63.8884C169.739 64.0115 169.682 64.1796 169.682 64.3926C169.682 64.6838 169.79 64.904 170.005 65.0531C170.223 65.1999 170.499 65.2733 170.833 65.2733ZM175.516 63.9097L175.501 62.8727H175.672L178.058 60.4438H179.095L176.553 63.0148H176.481L175.516 63.9097ZM174.734 65.8983V58.6256H175.572V65.8983H174.734ZM178.2 65.8983L176.07 63.1995L176.666 62.6171L179.266 65.8983H178.2ZM181.779 66.0262C181.433 66.0262 181.12 65.9611 180.838 65.8308C180.556 65.6983 180.332 65.5077 180.167 65.2591C180.001 65.0082 179.918 64.7051 179.918 64.35C179.918 64.0375 179.98 63.7842 180.103 63.5901C180.226 63.3936 180.39 63.2397 180.596 63.1284C180.802 63.0172 181.03 62.9343 181.278 62.8798C181.529 62.823 181.781 62.7781 182.035 62.7449C182.366 62.7023 182.635 62.6703 182.841 62.649C183.049 62.6254 183.201 62.5863 183.295 62.5318C183.392 62.4774 183.441 62.3827 183.441 62.2477V62.2193C183.441 61.869 183.345 61.5967 183.153 61.4026C182.964 61.2084 182.676 61.1114 182.29 61.1114C181.89 61.1114 181.576 61.199 181.349 61.3742C181.122 61.5494 180.962 61.7364 180.87 61.9352L180.074 61.6512C180.216 61.3197 180.406 61.0617 180.643 60.877C180.882 60.69 181.142 60.5598 181.424 60.4864C181.708 60.4106 181.987 60.3727 182.262 60.3727C182.437 60.3727 182.638 60.3941 182.866 60.4367C183.095 60.4769 183.317 60.561 183.53 60.6888C183.745 60.8166 183.924 61.0096 184.066 61.2676C184.208 61.5257 184.279 61.8713 184.279 62.3046V65.8983H183.441V65.1597H183.398C183.341 65.2781 183.247 65.4047 183.114 65.5397C182.982 65.6746 182.805 65.7894 182.585 65.8841C182.365 65.9788 182.096 66.0262 181.779 66.0262ZM181.907 65.2733C182.238 65.2733 182.518 65.2082 182.745 65.078C182.974 64.9478 183.147 64.7797 183.263 64.5737C183.382 64.3678 183.441 64.1512 183.441 63.9239V63.1568C183.405 63.1995 183.327 63.2385 183.206 63.274C183.088 63.3072 182.951 63.3368 182.795 63.3628C182.641 63.3865 182.49 63.4078 182.344 63.4267C182.199 63.4433 182.082 63.4575 181.992 63.4693C181.774 63.4977 181.571 63.5439 181.381 63.6078C181.194 63.6694 181.043 63.7629 180.927 63.8884C180.813 64.0115 180.756 64.1796 180.756 64.3926C180.756 64.6838 180.864 64.904 181.079 65.0531C181.297 65.1999 181.573 65.2733 181.907 65.2733ZM188.024 66.012C187.532 66.012 187.1 65.8948 186.728 65.6604C186.359 65.426 186.07 65.0981 185.862 64.6767C185.656 64.2553 185.553 63.7629 185.553 63.1995C185.553 62.6313 185.656 62.1353 185.862 61.7115C186.07 61.2878 186.359 60.9587 186.728 60.7243C187.1 60.4899 187.532 60.3727 188.024 60.3727C188.517 60.3727 188.948 60.4899 189.317 60.7243C189.689 60.9587 189.978 61.2878 190.184 61.7115C190.392 62.1353 190.496 62.6313 190.496 63.1995C190.496 63.7629 190.392 64.2553 190.184 64.6767C189.978 65.0981 189.689 65.426 189.317 65.6604C188.948 65.8948 188.517 66.012 188.024 66.012ZM188.024 65.2591C188.399 65.2591 188.706 65.1632 188.948 64.9715C189.189 64.7797 189.368 64.5276 189.484 64.2151C189.6 63.9026 189.658 63.564 189.658 63.1995C189.658 62.8349 189.6 62.4951 189.484 62.1803C189.368 61.8654 189.189 61.6109 188.948 61.4168C188.706 61.2227 188.399 61.1256 188.024 61.1256C187.65 61.1256 187.343 61.2227 187.101 61.4168C186.86 61.6109 186.681 61.8654 186.565 62.1803C186.449 62.4951 186.391 62.8349 186.391 63.1995C186.391 63.564 186.449 63.9026 186.565 64.2151C186.681 64.5276 186.86 64.7797 187.101 64.9715C187.343 65.1632 187.65 65.2591 188.024 65.2591ZM191.612 67.9438V60.4438H193.103V61.36H193.171C193.237 61.2132 193.333 61.064 193.459 60.9125C193.586 60.7586 193.752 60.6308 193.956 60.529C194.162 60.4248 194.417 60.3727 194.723 60.3727C195.121 60.3727 195.487 60.4769 195.824 60.6852C196.16 60.8912 196.429 61.2025 196.63 61.6192C196.831 62.0335 196.932 62.5531 196.932 63.1781C196.932 63.7866 196.833 64.3003 196.637 64.7193C196.443 65.136 196.178 65.4521 195.841 65.6675C195.508 65.8806 195.134 65.9871 194.719 65.9871C194.426 65.9871 194.176 65.9386 193.97 65.8415C193.766 65.7444 193.599 65.6225 193.469 65.4757C193.339 65.3266 193.24 65.1763 193.171 65.0247H193.125V67.9438H191.612ZM193.093 63.171C193.093 63.4954 193.138 63.7783 193.228 64.0198C193.318 64.2612 193.448 64.4495 193.618 64.5844C193.789 64.717 193.996 64.7833 194.24 64.7833C194.486 64.7833 194.694 64.7158 194.865 64.5808C195.035 64.4435 195.164 64.2541 195.252 64.0127C195.342 63.7688 195.387 63.4883 195.387 63.171C195.387 62.8562 195.343 62.5792 195.255 62.3401C195.168 62.101 195.039 61.9139 194.868 61.779C194.698 61.6441 194.488 61.5766 194.24 61.5766C193.994 61.5766 193.785 61.6417 193.615 61.7719C193.447 61.9021 193.318 62.0868 193.228 62.3259C193.138 62.565 193.093 62.8467 193.093 63.171ZM199.496 66.0013C199.148 66.0013 198.837 65.9409 198.565 65.8202C198.293 65.6971 198.077 65.516 197.919 65.2769C197.763 65.0354 197.684 64.7347 197.684 64.3749C197.684 64.0718 197.74 63.8173 197.851 63.6114C197.963 63.4054 198.114 63.2397 198.306 63.1142C198.498 62.9888 198.715 62.8941 198.959 62.8301C199.206 62.7662 199.464 62.7212 199.733 62.6952C200.051 62.662 200.306 62.6313 200.5 62.6029C200.695 62.5721 200.835 62.5271 200.923 62.4679C201.011 62.4087 201.054 62.3211 201.054 62.2051V62.1838C201.054 61.9589 200.983 61.7849 200.841 61.6618C200.702 61.5387 200.503 61.4772 200.245 61.4772C199.973 61.4772 199.756 61.5375 199.595 61.6583C199.434 61.7766 199.327 61.9258 199.275 62.1057L197.876 61.9921C197.947 61.6606 198.087 61.3742 198.295 61.1327C198.504 60.8888 198.772 60.7018 199.101 60.5716C199.433 60.439 199.816 60.3727 200.252 60.3727C200.555 60.3727 200.845 60.4083 201.122 60.4793C201.401 60.5503 201.649 60.6604 201.864 60.8095C202.082 60.9587 202.254 61.1504 202.379 61.3848C202.505 61.6168 202.567 61.895 202.567 62.2193V65.8983H201.133V65.1419H201.09C201.002 65.3124 200.885 65.4627 200.738 65.5929C200.592 65.7208 200.415 65.8214 200.209 65.8948C200.003 65.9658 199.765 66.0013 199.496 66.0013ZM199.929 64.9573C200.151 64.9573 200.348 64.9135 200.518 64.8259C200.689 64.7359 200.822 64.6152 200.92 64.4637C201.017 64.3121 201.065 64.1405 201.065 63.9487V63.3699C201.018 63.4007 200.953 63.4291 200.87 63.4551C200.789 63.4788 200.698 63.5013 200.596 63.5226C200.495 63.5415 200.393 63.5593 200.291 63.5759C200.189 63.5901 200.097 63.6031 200.014 63.6149C199.836 63.641 199.681 63.6824 199.549 63.7392C199.416 63.796 199.313 63.873 199.24 63.97C199.166 64.0647 199.13 64.1831 199.13 64.3252C199.13 64.5311 199.204 64.6886 199.353 64.7975C199.505 64.904 199.697 64.9573 199.929 64.9573ZM204.48 67.9438C204.288 67.9438 204.108 67.9284 203.94 67.8976C203.774 67.8692 203.637 67.8325 203.528 67.7875L203.869 66.6583C204.046 66.7127 204.206 66.7423 204.348 66.747C204.493 66.7518 204.617 66.7186 204.721 66.6476C204.828 66.5766 204.914 66.4558 204.98 66.2854L205.069 66.0546L203.112 60.4438H204.703L205.833 64.4495H205.889L207.029 60.4438H208.631L206.511 66.4878C206.409 66.7814 206.27 67.037 206.095 67.2548C205.922 67.475 205.703 67.6443 205.438 67.7627C205.173 67.8834 204.854 67.9438 204.48 67.9438Z" fill="black"/>
<path d="M174.905 76.4679C175.84 76.4679 176.74 76.6248 177.604 76.9384C178.474 77.2521 179.249 77.7522 179.93 78.4388C180.617 79.1254 181.158 80.0368 181.555 81.1732C181.957 82.3036 182.161 83.6915 182.167 85.3369C182.167 86.8816 181.993 88.2606 181.644 89.474C181.3 90.6813 180.806 91.7082 180.161 92.5546C179.516 93.4009 178.737 94.046 177.826 94.4899C176.915 94.9279 175.897 95.1469 174.772 95.1469C173.559 95.1469 172.487 94.9131 171.558 94.4455C170.629 93.9721 169.88 93.3299 169.312 92.5191C168.75 91.7023 168.41 90.7849 168.291 89.7669H172.082C172.23 90.4298 172.541 90.9447 173.014 91.3117C173.488 91.6727 174.074 91.8532 174.772 91.8532C175.956 91.8532 176.855 91.3383 177.471 90.3085C178.086 89.2727 178.397 87.8552 178.403 86.056H178.279C178.007 86.5887 177.64 87.0473 177.178 87.4321C176.716 87.8108 176.187 88.1038 175.589 88.311C174.997 88.5181 174.367 88.6217 173.698 88.6217C172.627 88.6217 171.671 88.3701 170.83 87.8671C169.99 87.364 169.327 86.6715 168.842 85.7897C168.356 84.9078 168.114 83.9016 168.114 82.7712C168.108 81.552 168.389 80.4659 168.957 79.513C169.525 78.5601 170.318 77.8144 171.336 77.2758C172.36 76.7313 173.55 76.462 174.905 76.4679ZM174.932 79.4864C174.334 79.4864 173.801 79.6284 173.334 79.9125C172.872 80.1966 172.505 80.5784 172.233 81.0578C171.967 81.5372 171.836 82.0728 171.842 82.6647C171.842 83.2624 171.973 83.801 172.233 84.2804C172.499 84.7539 172.86 85.1327 173.316 85.4168C173.778 85.695 174.304 85.834 174.896 85.834C175.34 85.834 175.752 85.7512 176.13 85.5855C176.509 85.4197 176.838 85.1919 177.116 84.9019C177.4 84.6059 177.622 84.2656 177.782 83.8809C177.941 83.4962 178.021 83.0878 178.021 82.6558C178.015 82.0817 177.879 81.5549 177.613 81.0755C177.347 80.5961 176.98 80.2114 176.512 79.9214C176.045 79.6314 175.518 79.4864 174.932 79.4864ZM194.783 91.4892V90.5304C194.783 89.8024 194.937 89.1336 195.244 88.524C195.558 87.9085 196.011 87.4173 196.603 87.0503C197.2 86.6774 197.928 86.491 198.787 86.491C199.657 86.491 200.388 86.6745 200.979 87.0414C201.577 87.4084 202.027 87.8996 202.329 88.5151C202.637 89.1248 202.791 89.7965 202.791 90.5304V91.4892C202.791 92.2172 202.637 92.889 202.329 93.5045C202.021 94.1141 201.568 94.6024 200.971 94.9693C200.373 95.3422 199.645 95.5286 198.787 95.5286C197.917 95.5286 197.186 95.3422 196.594 94.9693C196.002 94.6024 195.552 94.1141 195.244 93.5045C194.937 92.889 194.783 92.2172 194.783 91.4892ZM197.366 90.5304V91.4892C197.366 91.9094 197.467 92.306 197.668 92.6789C197.875 93.0517 198.248 93.2382 198.787 93.2382C199.325 93.2382 199.692 93.0547 199.887 92.6877C200.089 92.3208 200.189 91.9213 200.189 91.4892V90.5304C200.189 90.0984 200.095 89.6959 199.905 89.323C199.716 88.9502 199.343 88.7637 198.787 88.7637C198.254 88.7637 197.884 88.9502 197.677 89.323C197.47 89.6959 197.366 90.0984 197.366 90.5304ZM185.452 81.0844V80.1256C185.452 79.3917 185.609 78.7199 185.923 78.1103C186.236 77.4948 186.689 77.0035 187.281 76.6366C187.879 76.2696 188.601 76.0862 189.447 76.0862C190.323 76.0862 191.057 76.2696 191.649 76.6366C192.241 77.0035 192.691 77.4948 192.998 78.1103C193.306 78.7199 193.46 79.3917 193.46 80.1256V81.0844C193.46 81.8183 193.303 82.4901 192.989 83.0997C192.682 83.7093 192.229 84.1976 191.631 84.5645C191.039 84.9255 190.311 85.1061 189.447 85.1061C188.583 85.1061 187.852 84.9226 187.254 84.5556C186.662 84.1828 186.213 83.6945 185.905 83.0908C185.603 82.4812 185.452 81.8124 185.452 81.0844ZM188.053 80.1256V81.0844C188.053 81.5164 188.154 81.916 188.355 82.2829C188.562 82.6499 188.926 82.8333 189.447 82.8333C189.992 82.8333 190.362 82.6499 190.557 82.2829C190.758 81.916 190.859 81.5164 190.859 81.0844V80.1256C190.859 79.6935 190.764 79.2911 190.575 78.9182C190.385 78.5453 190.009 78.3589 189.447 78.3589C188.92 78.3589 188.556 78.5483 188.355 78.9271C188.154 79.3059 188.053 79.7054 188.053 80.1256ZM186.624 94.8983L199.124 76.7165H201.45L188.95 94.8983H186.624Z" fill="black"/>
<g filter="url(#filter0_f_1044_694)">
<circle cx="114" cy="48" r="44" fill="#FFD208"/>
</g>
<g filter="url(#filter1_f_1044_694)">
<circle cx="245.5" cy="70.5" r="30.5" fill="#FFD208"/>
</g>
<g filter="url(#filter2_f_1044_694)">
<circle cx="123" cy="139" r="23" fill="#FFD208"/>
</g>
<g filter="url(#filter3_d_1044_694)">
<rect x="145.847" y="36.8983" width="80" height="80" rx="14" fill="white" fill-opacity="0.2" shape-rendering="crispEdges"/>
<rect x="146.097" y="37.1483" width="79.5" height="79.5" rx="13.75" stroke="white" stroke-opacity="0.5" stroke-width="0.5" shape-rendering="crispEdges"/>
</g>
<path d="M130.518 133.426V133.65C130.518 137.29 129.594 139.768 125.562 141.798L126.556 143.212C131.386 140.762 132.338 137.43 132.338 133.426H130.518ZM126.36 133.426V134.896H131.624V133.426H126.36ZM130.56 136.604L125.688 136.884L125.912 138.48L130.56 138.032V136.604ZM133.906 132.166V145.13H135.782V132.166H133.906ZM135.292 137.122V138.648H137.574V137.122H135.292ZM143.396 133.426V133.65C143.396 137.29 142.472 139.768 138.44 141.798L139.434 143.212C144.264 140.762 145.216 137.43 145.216 133.426H143.396ZM139.238 133.426V134.896H144.502V133.426H139.238ZM143.438 136.604L138.566 136.884L138.79 138.48L143.438 138.032V136.604ZM146.784 132.166V145.13H148.66V132.166H146.784ZM148.17 137.122V138.648H150.452V137.122H148.17ZM156.303 139.474V142.428H158.165V139.474H156.303ZM157.241 132.838C154.469 132.838 152.397 134.252 152.397 136.408C152.397 138.592 154.469 139.992 157.241 139.992C160.013 139.992 162.085 138.592 162.085 136.408C162.085 134.252 160.013 132.838 157.241 132.838ZM157.241 134.308C159.019 134.308 160.251 135.092 160.251 136.408C160.251 137.752 159.019 138.522 157.241 138.522C155.463 138.522 154.231 137.752 154.231 136.408C154.231 135.092 155.463 134.308 157.241 134.308ZM151.389 142.134V143.646H163.121V142.134H151.389ZM173.732 132.18V145.144H175.51V132.18H173.732ZM169.938 136.898V138.536H171.674V136.898H169.938ZM171.156 132.432V144.542H172.906V132.432H171.156ZM164.352 133.636V135.12H170.246V133.636H164.352ZM164.324 142.204C165.92 142.204 168.552 142.162 170.568 141.728L170.442 140.384C168.482 140.65 165.752 140.692 164.128 140.692L164.324 142.204ZM165.15 134.588V141.084H166.816V134.588H165.15ZM167.754 134.588V141.084H169.434V134.588H167.754ZM186.023 132.166V145.172H187.899V132.166H186.023ZM180.913 133.076C178.953 133.076 177.511 134.868 177.511 137.696C177.511 140.552 178.953 142.344 180.913 142.344C182.873 142.344 184.315 140.552 184.315 137.696C184.315 134.868 182.873 133.076 180.913 133.076ZM180.913 134.77C181.879 134.77 182.523 135.792 182.523 137.696C182.523 139.628 181.879 140.664 180.913 140.664C179.947 140.664 179.289 139.628 179.289 137.696C179.289 135.792 179.947 134.77 180.913 134.77ZM190.026 142.204V143.716H201.758V142.204H190.026ZM194.94 139.754V142.82H196.802V139.754H194.94ZM191.342 133.02V134.49H198.594V135.876H191.37V139.516H193.218V137.332H200.442V133.02H191.342ZM191.37 138.774V140.272H200.736V138.774H191.37ZM215.119 132.18V138.69H216.981V132.18H215.119ZM210.793 132.67V133.678C210.793 135.414 209.533 136.842 206.285 137.486L206.901 138.984C210.835 138.13 212.823 136.114 212.823 132.67H210.793ZM207.027 132.67V134.154H211.577V132.67H207.027ZM212.319 133.79V135.204H215.357V133.79H212.319ZM212.235 136.31V137.71H215.287V136.31H212.235ZM208.413 139.166V140.622H215.119V141.364H208.441V144.346H210.303V142.736H216.981V139.166H208.413ZM208.441 143.562V145.018H217.247V143.562H208.441ZM228.376 132.18V145.144H230.14V132.18H228.376ZM224.106 136.604V138.116H226.248V136.604H224.106ZM225.758 132.39V144.556H227.494V132.39H225.758ZM221.306 134.294V135.624C221.306 137.836 220.648 140.16 218.744 141.35L219.85 142.722C221.908 141.434 222.706 138.536 222.706 135.624V134.294H221.306ZM221.726 134.294V135.624C221.726 138.48 222.482 141.196 224.54 142.414L225.632 141.056C223.756 139.964 223.112 137.78 223.112 135.624V134.294H221.726ZM219.234 133.482V134.98H225.016V133.482H219.234ZM238.293 133.174V135.064C238.293 137.584 237.229 140.076 234.975 141.056L236.081 142.596C238.657 141.406 239.805 138.396 239.805 135.064V133.174H238.293ZM238.657 133.174V135.064C238.657 138.256 239.805 141.14 242.311 142.288L243.403 140.79C241.191 139.838 240.169 137.458 240.169 135.064V133.174H238.657ZM244.019 132.166V145.172H245.895V132.166H244.019ZM141.023 150.18V157.656H142.885V150.18H141.023ZM142.367 153.176V154.716H144.607V153.176H142.367ZM134.317 158.23V159.714H141.023V163.144H142.885V158.23H134.317ZM133.197 150.908V156.242H135.059V150.908H133.197ZM133.197 155.472V156.998H134.289C136.123 156.998 138.111 156.886 140.225 156.466L140.015 154.968C137.971 155.36 136.053 155.472 134.289 155.472H133.197ZM148.47 152.182V152.644C148.47 153.89 147.546 155.122 145.446 155.584L146.244 157.012C148.764 156.438 149.968 154.688 149.968 152.644V152.182H148.47ZM148.834 152.182V152.644C148.834 154.576 150.038 156.256 152.53 156.788L153.314 155.374C151.256 154.94 150.332 153.792 150.332 152.644V152.182H148.834ZM145.922 151.286V152.756H152.88V151.286H145.922ZM148.47 150.138V152.07H150.332V150.138H148.47ZM153.902 150.18V156.9H155.764V150.18H153.902ZM155.008 152.77V154.282H157.472V152.77H155.008ZM147.196 157.432V158.846H153.93V159.574H147.224V162.444H149.072V160.89H155.764V157.432H147.196ZM147.224 161.646V163.06H156.142V161.646H147.224ZM166.255 151.468V151.79C166.255 152.84 165.009 154.002 162.167 154.282L162.825 155.724C166.157 155.402 167.907 153.764 167.907 151.79V151.468H166.255ZM167.165 151.468V151.79C167.165 153.778 168.929 155.402 172.247 155.724L172.905 154.282C170.063 154.016 168.817 152.84 168.817 151.79V151.468H167.165ZM162.741 150.712V152.182H172.345V150.712H162.741ZM161.677 156.256V157.726H173.409V156.256H161.677ZM162.979 158.65V160.12H170.119V163.144H171.981V158.65H162.979ZM177.72 151.174V153.064C177.72 155.584 176.656 158.076 174.402 159.056L175.508 160.596C178.084 159.406 179.232 156.396 179.232 153.064V151.174H177.72ZM178.084 151.174V153.064C178.084 156.256 179.232 159.14 181.738 160.288L182.83 158.79C180.618 157.838 179.596 155.458 179.596 153.064V151.174H178.084ZM183.446 150.166V163.172H185.322V150.166H183.446ZM194.624 151.577C195.148 151.577 195.652 151.665 196.136 151.841C196.623 152.016 197.057 152.297 197.438 152.681C197.823 153.065 198.126 153.576 198.348 154.212C198.573 154.845 198.688 155.623 198.691 156.544C198.691 157.409 198.593 158.181 198.398 158.861C198.206 159.537 197.929 160.112 197.568 160.586C197.206 161.06 196.77 161.421 196.26 161.67C195.75 161.915 195.18 162.038 194.55 162.038C193.87 162.038 193.27 161.907 192.75 161.645C192.23 161.38 191.81 161.02 191.492 160.566C191.177 160.109 190.987 159.595 190.921 159.025H193.043C193.126 159.396 193.3 159.684 193.565 159.89C193.831 160.092 194.159 160.193 194.55 160.193C195.213 160.193 195.716 159.905 196.061 159.328C196.406 158.748 196.58 157.954 196.583 156.947H196.514C196.361 157.245 196.156 157.502 195.897 157.717C195.639 157.929 195.342 158.093 195.007 158.209C194.676 158.325 194.323 158.383 193.948 158.383C193.348 158.383 192.813 158.243 192.342 157.961C191.872 157.679 191.501 157.291 191.229 156.797C190.957 156.304 190.821 155.74 190.821 155.107C190.818 154.424 190.975 153.816 191.293 153.283C191.612 152.749 192.056 152.331 192.626 152.03C193.199 151.725 193.865 151.574 194.624 151.577ZM194.639 153.268C194.305 153.268 194.006 153.347 193.744 153.506C193.486 153.665 193.28 153.879 193.128 154.148C192.979 154.416 192.906 154.716 192.909 155.047C192.909 155.382 192.982 155.684 193.128 155.952C193.277 156.217 193.479 156.43 193.734 156.589C193.993 156.744 194.288 156.822 194.619 156.822C194.868 156.822 195.098 156.776 195.31 156.683C195.523 156.59 195.707 156.463 195.862 156.3C196.021 156.135 196.146 155.944 196.235 155.729C196.325 155.513 196.369 155.284 196.369 155.042C196.366 154.721 196.29 154.426 196.141 154.158C195.992 153.889 195.786 153.674 195.524 153.511C195.262 153.349 194.967 153.268 194.639 153.268ZM205.756 159.989V159.452C205.756 159.045 205.842 158.67 206.014 158.329C206.19 157.984 206.444 157.709 206.775 157.503C207.11 157.295 207.517 157.19 207.998 157.19C208.485 157.19 208.894 157.293 209.226 157.498C209.561 157.704 209.813 157.979 209.982 158.324C210.154 158.665 210.24 159.041 210.24 159.452V159.989C210.24 160.397 210.154 160.773 209.982 161.118C209.809 161.459 209.556 161.733 209.221 161.938C208.886 162.147 208.479 162.251 207.998 162.251C207.511 162.251 207.101 162.147 206.77 161.938C206.439 161.733 206.187 161.459 206.014 161.118C205.842 160.773 205.756 160.397 205.756 159.989ZM207.203 159.452V159.989C207.203 160.225 207.259 160.447 207.372 160.655C207.488 160.864 207.696 160.969 207.998 160.969C208.3 160.969 208.505 160.866 208.614 160.66C208.727 160.455 208.783 160.231 208.783 159.989V159.452C208.783 159.21 208.73 158.985 208.624 158.776C208.518 158.567 208.31 158.463 207.998 158.463C207.7 158.463 207.493 158.567 207.377 158.776C207.261 158.985 207.203 159.21 207.203 159.452ZM200.531 154.163V153.626C200.531 153.215 200.618 152.838 200.794 152.497C200.97 152.152 201.223 151.877 201.555 151.672C201.89 151.466 202.294 151.364 202.768 151.364C203.258 151.364 203.669 151.466 204.001 151.672C204.332 151.877 204.584 152.152 204.756 152.497C204.929 152.838 205.015 153.215 205.015 153.626V154.163C205.015 154.574 204.927 154.95 204.752 155.291C204.579 155.632 204.326 155.906 203.991 156.111C203.659 156.314 203.252 156.415 202.768 156.415C202.284 156.415 201.875 156.312 201.54 156.106C201.208 155.898 200.957 155.624 200.784 155.286C200.615 154.945 200.531 154.57 200.531 154.163ZM201.987 153.626V154.163C201.987 154.404 202.044 154.628 202.156 154.834C202.272 155.039 202.476 155.142 202.768 155.142C203.073 155.142 203.28 155.039 203.389 154.834C203.502 154.628 203.558 154.404 203.558 154.163V153.626C203.558 153.384 203.505 153.158 203.399 152.949C203.293 152.741 203.083 152.636 202.768 152.636C202.473 152.636 202.269 152.742 202.156 152.954C202.044 153.167 201.987 153.39 201.987 153.626ZM201.187 161.898L208.187 151.716H209.489L202.489 161.898H201.187ZM223.533 150.166V157.166H225.395V150.166H223.533ZM224.653 152.938V154.45H227.117V152.938H224.653ZM216.827 157.684V159.028H223.561V159.714H216.855V162.15H218.703V160.974H225.395V157.684H216.827ZM216.855 161.688V163.06H225.773V161.688H216.855ZM215.189 151.132V152.532H222.819V151.132H215.189ZM219.011 152.84C217.079 152.84 215.819 153.666 215.819 154.968C215.819 156.27 217.079 157.068 219.011 157.068C220.929 157.068 222.189 156.27 222.189 154.968C222.189 153.666 220.929 152.84 219.011 152.84ZM219.011 154.142C219.879 154.142 220.411 154.422 220.411 154.968C220.411 155.486 219.879 155.766 219.011 155.766C218.143 155.766 217.611 155.486 217.611 154.968C217.611 154.422 218.143 154.142 219.011 154.142ZM218.073 150.082V152.126H219.935V150.082H218.073ZM236.972 150.194V159.504H238.848V150.194H236.972ZM230.21 161.436V162.92H239.17V161.436H230.21ZM230.21 158.566V162.038H232.072V158.566H230.21ZM231.792 151.006C229.804 151.006 228.264 152.378 228.264 154.296C228.264 156.2 229.804 157.586 231.792 157.586C233.78 157.586 235.306 156.2 235.306 154.296C235.306 152.378 233.78 151.006 231.792 151.006ZM231.792 152.616C232.744 152.616 233.486 153.232 233.486 154.296C233.486 155.346 232.744 155.962 231.792 155.962C230.826 155.962 230.084 155.346 230.084 154.296C230.084 153.232 230.826 152.616 231.792 152.616ZM131.785 172.978C131.395 172.978 131.05 172.909 130.751 172.77C130.454 172.63 130.222 172.438 130.055 172.194C129.888 171.948 129.806 171.667 129.808 171.353C129.806 171.107 129.854 170.879 129.953 170.671C130.051 170.461 130.186 170.286 130.356 170.145C130.529 170.003 130.721 169.913 130.933 169.876V169.841C130.654 169.77 130.433 169.613 130.268 169.373C130.103 169.13 130.022 168.855 130.024 168.546C130.022 168.251 130.097 167.986 130.248 167.753C130.4 167.52 130.608 167.337 130.873 167.202C131.14 167.068 131.444 167.001 131.785 167.001C132.122 167.001 132.423 167.068 132.689 167.202C132.954 167.337 133.162 167.52 133.314 167.753C133.467 167.986 133.545 168.251 133.547 168.546C133.545 168.855 133.46 169.13 133.294 169.373C133.129 169.613 132.91 169.77 132.637 169.841V169.876C132.848 169.913 133.037 170.003 133.206 170.145C133.374 170.286 133.509 170.461 133.609 170.671C133.709 170.879 133.761 171.107 133.762 171.353C133.761 171.667 133.675 171.948 133.507 172.194C133.34 172.438 133.108 172.63 132.811 172.77C132.515 172.909 132.173 172.978 131.785 172.978ZM131.785 172.353C132.048 172.353 132.276 172.31 132.467 172.225C132.658 172.14 132.806 172.02 132.91 171.864C133.014 171.709 133.067 171.527 133.069 171.319C133.067 171.099 133.011 170.905 132.899 170.736C132.787 170.568 132.635 170.435 132.441 170.339C132.25 170.242 132.031 170.194 131.785 170.194C131.537 170.194 131.315 170.242 131.12 170.339C130.927 170.435 130.775 170.568 130.663 170.736C130.553 170.905 130.499 171.099 130.501 171.319C130.499 171.527 130.549 171.709 130.652 171.864C130.756 172.02 130.904 172.14 131.098 172.225C131.291 172.31 131.52 172.353 131.785 172.353ZM131.785 169.591C131.993 169.591 132.178 169.55 132.339 169.466C132.502 169.383 132.63 169.267 132.723 169.117C132.815 168.967 132.863 168.792 132.865 168.591C132.863 168.395 132.816 168.223 132.725 168.077C132.635 167.93 132.509 167.816 132.348 167.736C132.187 167.655 131.999 167.614 131.785 167.614C131.567 167.614 131.377 167.655 131.214 167.736C131.051 167.816 130.925 167.93 130.836 168.077C130.747 168.223 130.704 168.395 130.706 168.591C130.704 168.792 130.748 168.967 130.839 169.117C130.932 169.267 131.06 169.383 131.223 169.466C131.386 169.55 131.573 169.591 131.785 169.591ZM136.585 169.282V170.57H137.249V169.282H136.585ZM139.905 166.29V170.546H140.569V166.29H139.905ZM134.705 169.506C136.057 169.506 137.785 169.49 139.369 169.258L139.329 168.826C137.785 169.002 136.017 169.01 134.625 169.01L134.705 169.506ZM135.721 170.81V171.29H139.913V171.874H135.737V173.13H136.385V172.314H140.569V170.81H135.721ZM135.737 172.962V173.442H140.809V172.962H135.737ZM138.465 169.73V170.162H140.113V169.73H138.465ZM136.961 166.426C135.881 166.426 135.177 166.842 135.177 167.514C135.177 168.186 135.881 168.602 136.961 168.602C138.033 168.602 138.737 168.186 138.737 167.514C138.737 166.842 138.033 166.426 136.961 166.426ZM136.961 166.89C137.657 166.89 138.113 167.13 138.113 167.514C138.113 167.898 137.657 168.138 136.961 168.138C136.249 168.138 135.793 167.898 135.793 167.514C135.793 167.13 136.249 166.89 136.961 166.89ZM146.506 167.08V172.898H145.801V167.819H145.767L144.347 168.762V168.046L145.801 167.08H146.506ZM150.001 166.554C148.929 166.554 148.137 167.21 148.137 168.162C148.137 169.106 148.929 169.762 150.001 169.762C151.081 169.762 151.873 169.106 151.873 168.162C151.873 167.21 151.081 166.554 150.001 166.554ZM150.001 167.098C150.705 167.098 151.225 167.538 151.225 168.162C151.225 168.786 150.705 169.218 150.001 169.218C149.305 169.218 148.777 168.786 148.777 168.162C148.777 167.538 149.305 167.098 150.001 167.098ZM153.233 166.29V169.994H153.905V166.29H153.233ZM149.225 170.346V170.882H153.249V171.61H149.241V173.194H149.889V172.106H153.905V170.346H149.225ZM149.241 172.898V173.426H154.145V172.898H149.241ZM158.039 170.444C158.039 169.728 158.132 169.07 158.317 168.469C158.505 167.867 158.772 167.313 159.118 166.807H159.709C159.573 166.995 159.445 167.226 159.326 167.501C159.208 167.773 159.105 168.074 159.016 168.401C158.927 168.727 158.857 169.064 158.806 169.413C158.757 169.761 158.732 170.105 158.732 170.444C158.732 170.895 158.775 171.352 158.863 171.816C158.95 172.28 159.067 172.711 159.215 173.109C159.363 173.506 159.527 173.83 159.709 174.08H159.118C158.772 173.574 158.505 173.021 158.317 172.421C158.132 171.819 158.039 171.16 158.039 170.444ZM162.421 169.282V170.57H163.085V169.282H162.421ZM165.741 166.29V170.546H166.405V166.29H165.741ZM160.541 169.506C161.893 169.506 163.621 169.49 165.205 169.258L165.165 168.826C163.621 169.002 161.853 169.01 160.461 169.01L160.541 169.506ZM161.557 170.81V171.29H165.749V171.874H161.573V173.13H162.221V172.314H166.405V170.81H161.557ZM161.573 172.962V173.442H166.645V172.962H161.573ZM164.301 169.73V170.162H165.949V169.73H164.301ZM162.797 166.426C161.717 166.426 161.013 166.842 161.013 167.514C161.013 168.186 161.717 168.602 162.797 168.602C163.869 168.602 164.573 168.186 164.573 167.514C164.573 166.842 163.869 166.426 162.797 166.426ZM162.797 166.89C163.493 166.89 163.949 167.13 163.949 167.514C163.949 167.898 163.493 168.138 162.797 168.138C162.085 168.138 161.629 167.898 161.629 167.514C161.629 167.13 162.085 166.89 162.797 166.89ZM169.49 170.444C169.49 171.16 169.396 171.819 169.208 172.421C169.023 173.021 168.757 173.574 168.41 174.08H167.819C167.956 173.893 168.082 173.662 168.2 173.387C168.319 173.114 168.423 172.815 168.512 172.489C168.601 172.162 168.671 171.824 168.72 171.475C168.771 171.125 168.797 170.781 168.797 170.444C168.797 169.993 168.753 169.536 168.666 169.072C168.579 168.608 168.461 168.177 168.314 167.779C168.166 167.381 168.001 167.057 167.819 166.807H168.41C168.757 167.313 169.023 167.867 169.208 168.469C169.396 169.07 169.49 169.728 169.49 170.444ZM170.735 170.57V171.114H177.295V170.57H170.735ZM173.663 170.826V173.522H174.319V170.826H173.663ZM171.559 166.578V169.706H176.455V166.578H175.799V167.57H172.223V166.578H171.559ZM172.223 168.106H175.799V169.17H172.223V168.106ZM183.398 166.282V173.53H184.054V166.282H183.398ZM181.894 169.01V169.562H183.494V169.01H181.894ZM178.43 171.242V171.794H178.982C180.358 171.794 181.238 171.754 182.278 171.57L182.214 171.026C181.198 171.218 180.342 171.242 178.982 171.242H178.43ZM178.43 166.946V171.434H179.086V167.498H181.774V166.946H178.43ZM178.918 168.978V169.514H181.462V168.978H178.918ZM189.775 170.114V171.682H190.447V170.114H189.775ZM189.775 167.57V167.73C189.775 168.706 189.039 169.514 187.967 169.834L188.271 170.354C189.487 169.97 190.311 168.994 190.311 167.73V167.57H189.775ZM189.903 167.57V167.73C189.903 168.954 190.743 169.914 191.959 170.274L192.263 169.762C191.199 169.45 190.439 168.666 190.439 167.73V167.57H189.903ZM188.135 167.234V167.77H192.111V167.234H188.135ZM189.775 166.338V167.466H190.447V166.338H189.775ZM192.935 166.282V173.53H193.599V166.282H192.935ZM187.839 172.042C189.127 172.034 190.895 172.026 192.519 171.722L192.463 171.234C190.887 171.474 189.063 171.482 187.743 171.482L187.839 172.042ZM200.567 166.29V173.522H201.207V166.29H200.567ZM199.343 169.186V169.738H200.735V169.186H199.343ZM198.927 166.45V173.154H199.551V166.45H198.927ZM195.327 171.186V171.738H195.799C196.887 171.738 197.615 171.706 198.479 171.522L198.415 170.97C197.575 171.146 196.855 171.186 195.799 171.186H195.327ZM195.327 167.17V171.434H195.983V167.714H198.015V167.17H195.327ZM206.735 167.001C206.973 167.002 207.212 167.048 207.451 167.137C207.689 167.226 207.907 167.374 208.104 167.58C208.301 167.785 208.459 168.064 208.578 168.418C208.698 168.772 208.757 169.216 208.757 169.751C208.757 170.268 208.708 170.727 208.61 171.128C208.513 171.528 208.373 171.865 208.189 172.14C208.007 172.414 207.786 172.623 207.525 172.765C207.265 172.907 206.971 172.978 206.644 172.978C206.318 172.978 206.027 172.913 205.772 172.785C205.518 172.654 205.31 172.473 205.147 172.242C204.986 172.009 204.882 171.739 204.837 171.432H205.53C205.593 171.699 205.717 171.92 205.902 172.094C206.09 172.267 206.337 172.353 206.644 172.353C207.093 172.353 207.447 172.157 207.706 171.765C207.968 171.373 208.098 170.819 208.098 170.103H208.053C207.947 170.262 207.821 170.399 207.675 170.515C207.529 170.63 207.367 170.719 207.189 170.782C207.011 170.844 206.822 170.876 206.621 170.876C206.288 170.876 205.982 170.793 205.703 170.628C205.427 170.462 205.205 170.234 205.039 169.944C204.874 169.652 204.792 169.319 204.792 168.944C204.792 168.588 204.871 168.262 205.03 167.966C205.191 167.669 205.417 167.432 205.706 167.256C205.998 167.08 206.341 166.995 206.735 167.001ZM206.735 167.626C206.496 167.626 206.281 167.685 206.09 167.805C205.9 167.922 205.75 168.081 205.638 168.282C205.528 168.481 205.473 168.701 205.473 168.944C205.473 169.186 205.526 169.407 205.632 169.606C205.74 169.803 205.887 169.96 206.073 170.077C206.26 170.193 206.473 170.251 206.712 170.251C206.892 170.251 207.06 170.216 207.215 170.145C207.37 170.074 207.506 169.976 207.621 169.853C207.739 169.728 207.83 169.587 207.897 169.43C207.963 169.27 207.996 169.105 207.996 168.932C207.996 168.705 207.941 168.492 207.831 168.293C207.723 168.094 207.574 167.933 207.382 167.81C207.193 167.687 206.977 167.626 206.735 167.626ZM209.968 166.938V170.29H213.288V166.938H209.968ZM212.64 167.474V169.754H210.616V167.474H212.64ZM214.616 166.282V171.586H215.28V166.282H214.616ZM215.072 168.49V169.042H216.352V168.49H215.072ZM210.776 172.818V173.362H215.608V172.818H210.776ZM210.776 171.082V173.05H211.44V171.082H210.776ZM219.08 169.93V171.538H219.744V169.93H219.08ZM222.288 166.29V171.794H222.952V166.29H222.288ZM218.016 172.818V173.362H223.128V172.818H218.016ZM218.016 171.258V172.97H218.68V171.258H218.016ZM217.08 170.178C218.392 170.178 220.144 170.154 221.704 169.906L221.656 169.418C220.12 169.618 218.328 169.634 216.992 169.634L217.08 170.178ZM220.816 170.562V171.05H222.456V170.562H220.816ZM219.344 166.586C218.28 166.586 217.56 167.082 217.56 167.842C217.56 168.61 218.28 169.106 219.344 169.106C220.4 169.106 221.12 168.61 221.12 167.842C221.12 167.082 220.4 166.586 219.344 166.586ZM219.344 167.082C220.016 167.082 220.488 167.378 220.488 167.842C220.488 168.306 220.016 168.602 219.344 168.602C218.664 168.602 218.192 168.306 218.192 167.842C218.192 167.378 218.664 167.082 219.344 167.082ZM231.585 166.266V170.258H232.249V166.266H231.585ZM231.969 168.002V168.562H233.321V168.002H231.969ZM227.657 170.626V171.13H231.601V171.762H227.673V173.122H228.329V172.242H232.249V170.626H227.657ZM227.673 172.93V173.442H232.513V172.93H227.673ZM226.657 166.938V167.458H230.929V166.938H226.657ZM228.793 167.778C227.737 167.778 227.057 168.234 227.057 168.97C227.057 169.698 227.737 170.146 228.793 170.146C229.833 170.146 230.521 169.698 230.521 168.97C230.521 168.234 229.833 167.778 228.793 167.778ZM228.793 168.266C229.457 168.266 229.889 168.538 229.889 168.97C229.889 169.394 229.457 169.666 228.793 169.666C228.121 169.666 227.689 169.394 227.689 168.97C227.689 168.538 228.121 168.266 228.793 168.266ZM228.457 166.21V167.298H229.121V166.21H228.457ZM239.256 166.298V171.578H239.928V166.298H239.256ZM235.28 172.818V173.362H240.144V172.818H235.28ZM235.28 171.034V173.002H235.936V171.034H235.28ZM236.048 166.794C234.968 166.794 234.16 167.53 234.16 168.578C234.16 169.618 234.968 170.362 236.048 170.362C237.128 170.362 237.928 169.618 237.928 168.578C237.928 167.53 237.128 166.794 236.048 166.794ZM236.048 167.37C236.752 167.37 237.288 167.866 237.288 168.578C237.288 169.282 236.752 169.778 236.048 169.778C235.344 169.778 234.808 169.282 234.808 168.578C234.808 167.866 235.344 167.37 236.048 167.37ZM242.46 167.08L242.403 171.262H241.744L241.687 167.08H242.46ZM242.074 172.944C241.933 172.944 241.813 172.894 241.713 172.793C241.612 172.693 241.562 172.573 241.562 172.432C241.562 172.292 241.612 172.172 241.713 172.072C241.813 171.971 241.933 171.921 242.074 171.921C242.214 171.921 242.334 171.971 242.434 172.072C242.535 172.172 242.585 172.292 242.585 172.432C242.585 172.525 242.561 172.61 242.514 172.688C242.468 172.766 242.407 172.828 242.329 172.876C242.253 172.921 242.168 172.944 242.074 172.944Z" fill="black"/>
<defs>
<filter id="filter0_f_1044_694" x="66" y="0" width="96" height="96" filterUnits="userSpaceOnUse" color-interpolation-filters="sRGB">
<feFlood flood-opacity="0" result="BackgroundImageFix"/>
<feBlend mode="normal" in="SourceGraphic" in2="BackgroundImageFix" result="shape"/>
<feGaussianBlur stdDeviation="2" result="effect1_foregroundBlur_1044_694"/>
</filter>
<filter id="filter1_f_1044_694" x="211" y="36" width="69" height="69" filterUnits="userSpaceOnUse" color-interpolation-filters="sRGB">
<feFlood flood-opacity="0" result="BackgroundImageFix"/>
<feBlend mode="normal" in="SourceGraphic" in2="BackgroundImageFix" result="shape"/>
<feGaussianBlur stdDeviation="2" result="effect1_foregroundBlur_1044_694"/>
</filter>
<filter id="filter2_f_1044_694" x="96" y="112" width="54" height="54" filterUnits="userSpaceOnUse" color-interpolation-filters="sRGB">
<feFlood flood-opacity="0" result="BackgroundImageFix"/>
<feBlend mode="normal" in="SourceGraphic" in2="BackgroundImageFix" result="shape"/>
<feGaussianBlur stdDeviation="2" result="effect1_foregroundBlur_1044_694"/>
</filter>
<filter id="filter3_d_1044_694" x="143.847" y="34.8983" width="88" height="88" filterUnits="userSpaceOnUse" color-interpolation-filters="sRGB">
<feFlood flood-opacity="0" result="BackgroundImageFix"/>
<feColorMatrix in="SourceAlpha" type="matrix" values="0 0 0 0 0 0 0 0 0 0 0 0 0 0 0 0 0 0 127 0" result="hardAlpha"/>
<feOffset dx="2" dy="2"/>
<feGaussianBlur stdDeviation="2"/>
<feComposite in2="hardAlpha" operator="out"/>
<feColorMatrix type="matrix" values="0 0 0 0 0 0 0 0 0 0 0 0 0 0 0 0 0 0 0.25 0"/>
<feBlend mode="normal" in2="BackgroundImageFix" result="effect1_dropShadow_1044_694"/>
<feBlend mode="normal" in="SourceGraphic" in2="effect1_dropShadow_1044_694" result="shape"/>
</filter>
</defs>
</svg>
