<svg width="40" height="30" viewBox="0 0 40 30" fill="none" xmlns="http://www.w3.org/2000/svg">
<path d="M9.99999 1C9.99999 0.447715 10.4477 0 11 0H29C29.5523 0 30 0.447715 30 1C30 1.55228 29.5523 2 29 2H11C10.4477 2 9.99999 1.55228 9.99999 1Z" fill="#1F1D1D"/>
<path d="M9.99999 8C9.99999 7.44772 10.4477 7 11 7H29C29.5523 7 30 7.44772 30 8C30 8.55229 29.5523 9 29 9H11C10.4477 9 9.99999 8.55229 9.99999 8Z" fill="#1F1D1D"/>
<path d="M11 14C10.4477 14 9.99999 14.4477 9.99999 15C9.99999 15.5523 10.4477 16 11 16H29C29.5523 16 30 15.5523 30 15C30 14.4477 29.5523 14 29 14H11Z" fill="#1F1D1D"/>
<path d="M0.654114 29V23.1818H2.94957C3.39086 23.1818 3.7668 23.2661 4.07741 23.4347C4.38802 23.6013 4.62476 23.8333 4.78764 24.1307C4.95241 24.4261 5.0348 24.767 5.0348 25.1534C5.0348 25.5398 4.95146 25.8807 4.7848 26.1761C4.61813 26.4716 4.37665 26.7017 4.06036 26.8665C3.74597 27.0313 3.36529 27.1136 2.91832 27.1136H1.45525V26.1278H2.71945C2.9562 26.1278 3.15127 26.0871 3.30468 26.0057C3.45999 25.9223 3.57552 25.8078 3.65127 25.6619C3.72892 25.5142 3.76775 25.3447 3.76775 25.1534C3.76775 24.9602 3.72892 24.7917 3.65127 24.6477C3.57552 24.5019 3.45999 24.3892 3.30468 24.3097C3.14938 24.2282 2.95241 24.1875 2.71377 24.1875H1.88423V29H0.654114Z" fill="#1F1D1D"/>
<path d="M5.8338 29V23.1818H8.12926C8.56865 23.1818 8.94365 23.2604 9.25426 23.4176C9.56676 23.5729 9.80445 23.7936 9.96732 24.0795C10.1321 24.3636 10.2145 24.6979 10.2145 25.0824C10.2145 25.4687 10.1311 25.8011 9.96448 26.0795C9.79782 26.3561 9.55634 26.5682 9.24005 26.7159C8.92566 26.8636 8.54498 26.9375 8.09801 26.9375H6.56107V25.9489H7.89914C8.13399 25.9489 8.32907 25.9167 8.48437 25.8523C8.63967 25.7879 8.7552 25.6913 8.83096 25.5625C8.90861 25.4337 8.94744 25.2737 8.94744 25.0824C8.94744 24.8892 8.90861 24.7263 8.83096 24.5938C8.7552 24.4612 8.63873 24.3608 8.48153 24.2926C8.32623 24.2225 8.1302 24.1875 7.89346 24.1875H7.06391V29H5.8338ZM8.97585 26.3523L10.4219 29H9.06392L7.64914 26.3523H8.97585Z" fill="#1F1D1D"/>
<path d="M16.4304 26.0909C16.4304 26.7254 16.3101 27.2652 16.0696 27.7102C15.831 28.1553 15.5052 28.4953 15.0923 28.7301C14.6813 28.9631 14.2192 29.0795 13.706 29.0795C13.1889 29.0795 12.7249 28.9621 12.3139 28.7273C11.9029 28.4924 11.5781 28.1525 11.3395 27.7074C11.1008 27.2623 10.9815 26.7235 10.9815 26.0909C10.9815 25.4564 11.1008 24.9167 11.3395 24.4716C11.5781 24.0265 11.9029 23.6875 12.3139 23.4545C12.7249 23.2197 13.1889 23.1023 13.706 23.1023C14.2192 23.1023 14.6813 23.2197 15.0923 23.4545C15.5052 23.6875 15.831 24.0265 16.0696 24.4716C16.3101 24.9167 16.4304 25.4564 16.4304 26.0909ZM15.1832 26.0909C15.1832 25.6799 15.1217 25.3333 14.9986 25.0511C14.8774 24.7689 14.706 24.5549 14.4844 24.4091C14.2628 24.2633 14.0033 24.1903 13.706 24.1903C13.4086 24.1903 13.1491 24.2633 12.9276 24.4091C12.706 24.5549 12.5336 24.7689 12.4105 25.0511C12.2893 25.3333 12.2287 25.6799 12.2287 26.0909C12.2287 26.5019 12.2893 26.8485 12.4105 27.1307C12.5336 27.4129 12.706 27.6269 12.9276 27.7727C13.1491 27.9186 13.4086 27.9915 13.706 27.9915C14.0033 27.9915 14.2628 27.9186 14.4844 27.7727C14.706 27.6269 14.8774 27.4129 14.9986 27.1307C15.1217 26.8485 15.1832 26.5019 15.1832 26.0909Z" fill="#1F1D1D"/>
<path d="M19.4041 29H17.3416V23.1818H19.4212C20.0064 23.1818 20.5102 23.2983 20.9325 23.5312C21.3549 23.7623 21.6797 24.0947 21.907 24.5284C22.1361 24.9621 22.2507 25.4811 22.2507 26.0852C22.2507 26.6913 22.1361 27.2121 21.907 27.6477C21.6797 28.0833 21.353 28.4176 20.9268 28.6506C20.5026 28.8835 19.995 29 19.4041 29ZM18.5717 27.946H19.353C19.7166 27.946 20.0225 27.8816 20.2706 27.7528C20.5206 27.6222 20.7081 27.4205 20.8331 27.1477C20.96 26.8731 21.0234 26.5189 21.0234 26.0852C21.0234 25.6553 20.96 25.304 20.8331 25.0312C20.7081 24.7585 20.5215 24.5578 20.2734 24.429C20.0253 24.3002 19.7195 24.2358 19.3558 24.2358H18.5717V27.946Z" fill="#1F1D1D"/>
<path d="M26.7557 23.1818H27.9858V26.9602C27.9858 27.3845 27.8845 27.7557 27.6818 28.0739C27.4811 28.392 27.1998 28.6402 26.8381 28.8182C26.4763 28.9943 26.0549 29.0824 25.5739 29.0824C25.0909 29.0824 24.6686 28.9943 24.3068 28.8182C23.9451 28.6402 23.6638 28.392 23.4631 28.0739C23.2623 27.7557 23.1619 27.3845 23.1619 26.9602V23.1818H24.392V26.8551C24.392 27.0767 24.4403 27.2737 24.5369 27.446C24.6354 27.6184 24.7737 27.7538 24.9517 27.8523C25.1297 27.9508 25.3371 28 25.5739 28C25.8125 28 26.0199 27.9508 26.196 27.8523C26.374 27.7538 26.5114 27.6184 26.6079 27.446C26.7064 27.2737 26.7557 27.0767 26.7557 26.8551V23.1818Z" fill="#1F1D1D"/>
<path d="M34.1314 25.2188H32.8871C32.8643 25.0578 32.8179 24.9148 32.7479 24.7898C32.6778 24.6629 32.5878 24.5549 32.478 24.4659C32.3681 24.3769 32.2412 24.3087 32.0973 24.2614C31.9553 24.214 31.8009 24.1903 31.6342 24.1903C31.3331 24.1903 31.0708 24.2652 30.8473 24.4148C30.6238 24.5625 30.4505 24.7784 30.3274 25.0625C30.2043 25.3447 30.1427 25.6875 30.1427 26.0909C30.1427 26.5057 30.2043 26.8542 30.3274 27.1364C30.4524 27.4186 30.6267 27.6316 30.8501 27.7756C31.0736 27.9195 31.3321 27.9915 31.6257 27.9915C31.7905 27.9915 31.9429 27.9697 32.0831 27.9261C32.2251 27.8826 32.3511 27.8191 32.4609 27.7358C32.5708 27.6506 32.6617 27.5473 32.7337 27.4261C32.8075 27.3049 32.8587 27.1667 32.8871 27.0114L34.1314 27.017C34.0992 27.2841 34.0187 27.5417 33.8899 27.7898C33.763 28.036 33.5916 28.2566 33.3757 28.4517C33.1617 28.6449 32.906 28.7983 32.6087 28.9119C32.3132 29.0237 31.9789 29.0795 31.6058 29.0795C31.0869 29.0795 30.6229 28.9621 30.2138 28.7273C29.8066 28.4924 29.4846 28.1525 29.2479 27.7074C29.013 27.2623 28.8956 26.7235 28.8956 26.0909C28.8956 25.4564 29.0149 24.9167 29.2535 24.4716C29.4922 24.0265 29.816 23.6875 30.2251 23.4545C30.6342 23.2197 31.0945 23.1023 31.6058 23.1023C31.9429 23.1023 32.2554 23.1496 32.5433 23.2443C32.8331 23.339 33.0897 23.4773 33.3132 23.6591C33.5367 23.839 33.7185 24.0597 33.8587 24.321C34.0007 24.5824 34.0916 24.8816 34.1314 25.2188Z" fill="#1F1D1D"/>
<path d="M34.7919 24.196V23.1818H39.5703V24.196H37.7891V29H36.5731V24.196H34.7919Z" fill="#1F1D1D"/>
</svg>
